<svg width="147" height="258" viewBox="0 0 147 258" fill="none" xmlns="http://www.w3.org/2000/svg">
<path d="M216.376 107.231C216.418 108.234 216.446 109.242 216.46 110.253L214.961 110.274C214.968 110.772 214.971 111.271 214.971 111.771C214.971 112.271 214.968 112.771 214.961 113.269L216.46 113.29C216.446 114.301 216.418 115.308 216.376 116.312L214.877 116.249C214.836 117.246 214.78 118.24 214.711 119.229L216.207 119.334C216.136 120.341 216.052 121.345 215.953 122.344L214.461 122.197C214.363 123.19 214.251 124.18 214.126 125.165L215.614 125.354C215.487 126.355 215.346 127.351 215.191 128.344L213.709 128.112C213.555 129.098 213.387 130.08 213.206 131.056L214.681 131.33C214.497 132.322 214.3 133.31 214.088 134.293L212.622 133.978C212.412 134.952 212.189 135.921 211.953 136.885L213.41 137.242C213.17 138.223 212.916 139.199 212.649 140.169L211.202 139.771C210.938 140.731 210.661 141.685 210.37 142.633L211.804 143.072C211.508 144.038 211.199 144.999 210.876 145.953L209.455 145.473C209.137 146.415 208.805 147.351 208.461 148.281L209.868 148.802C209.517 149.749 209.154 150.691 208.777 151.626L207.386 151.065C207.014 151.988 206.629 152.904 206.233 153.814L207.607 154.414C207.204 155.339 206.787 156.258 206.358 157.169L205.001 156.531C204.578 157.431 204.142 158.325 203.693 159.211L205.032 159.888C204.577 160.788 204.109 161.681 203.629 162.567L202.31 161.852C201.836 162.727 201.35 163.595 200.852 164.455L202.151 165.206C201.645 166.079 201.128 166.945 200.599 167.802L199.322 167.014C198.8 167.861 198.266 168.699 197.72 169.53L198.974 170.354C198.42 171.197 197.855 172.032 197.278 172.858L196.048 172C195.479 172.815 194.898 173.623 194.307 174.421L195.512 175.314C194.912 176.125 194.301 176.927 193.679 177.72L192.498 176.794C191.885 177.576 191.26 178.349 190.625 179.114L191.778 180.073C191.134 180.848 190.478 181.615 189.813 182.372L188.686 181.381C188.03 182.128 187.363 182.866 186.685 183.594L187.784 184.615C187.097 185.353 186.4 186.082 185.693 186.801L184.623 185.749C183.926 186.458 183.219 187.157 182.502 187.846L183.542 188.928C182.815 189.626 182.079 190.315 181.333 190.994L180.323 189.884C179.588 190.553 178.843 191.211 178.089 191.86L179.067 192.997C178.302 193.654 177.529 194.301 176.746 194.937L175.8 193.773C175.028 194.4 174.248 195.016 173.459 195.621L174.372 196.811C173.572 197.425 172.764 198.027 171.946 198.619L171.067 197.404C170.262 197.986 169.448 198.558 168.626 199.119L169.471 200.358C168.639 200.926 167.799 201.482 166.95 202.027L166.139 200.765C165.303 201.302 164.458 201.828 163.606 202.342L164.381 203.627C163.518 204.147 162.648 204.656 161.771 205.152L161.032 203.847C160.167 204.336 159.295 204.814 158.415 205.28L159.117 206.605C158.227 207.077 157.329 207.536 156.425 207.983L155.76 206.639C154.87 207.079 153.972 207.507 153.068 207.923L153.695 209.285C152.78 209.706 151.857 210.115 150.928 210.511L150.34 209.132C149.427 209.521 148.508 209.898 147.582 210.262L148.131 211.658C147.194 212.027 146.25 212.384 145.299 212.728L144.789 211.317C143.856 211.654 142.918 211.979 141.973 212.291L142.443 213.716C141.487 214.032 140.525 214.335 139.557 214.624L139.127 213.188C138.176 213.472 137.22 213.744 136.258 214.003L136.648 215.452C135.677 215.713 134.7 215.962 133.718 216.197L133.368 214.738C132.403 214.969 131.432 215.188 130.456 215.393L130.765 216.861C129.781 217.067 128.792 217.261 127.799 217.441L127.532 215.965C126.554 216.142 125.571 216.306 124.584 216.456L124.81 217.939C123.818 218.091 122.821 218.229 121.82 218.353L121.635 216.865C120.649 216.987 119.659 217.096 118.665 217.192L118.809 218.685C117.81 218.781 116.806 218.864 115.799 218.933L115.696 217.436C114.706 217.504 113.712 217.559 112.715 217.599L112.776 219.098C111.773 219.139 110.765 219.167 109.754 219.181L109.734 217.681C109.235 217.688 108.736 217.691 108.236 217.691C107.735 217.691 107.236 217.688 106.737 217.681L106.717 219.181C105.706 219.167 104.699 219.139 103.695 219.098L103.756 217.599C102.759 217.559 101.765 217.504 100.775 217.436L100.672 218.933C99.6651 218.864 98.6615 218.781 97.6619 218.685L97.8056 217.192C96.8118 217.096 95.8219 216.987 94.8363 216.865L94.6513 218.353C93.6501 218.229 92.6532 218.091 91.6607 217.939L91.8869 216.456C90.8999 216.306 89.9174 216.142 88.9396 215.965L88.6722 217.441C87.6788 217.261 86.6902 217.067 85.7065 216.861L86.0149 215.393C85.0393 215.188 84.0685 214.969 83.1029 214.738L82.7535 216.197C81.7713 215.962 80.7943 215.713 79.8227 215.452L80.2127 214.003C79.2512 213.744 78.295 213.472 77.3445 213.188L76.914 214.624C75.9461 214.335 74.9839 214.032 74.0277 213.716L74.4982 212.291C73.5536 211.979 72.6148 211.654 71.6821 211.317L71.1719 212.728C70.2215 212.384 69.2773 212.027 68.3396 211.658L68.8891 210.262C67.9633 209.898 67.0439 209.521 66.131 209.132L65.5426 210.511C64.6137 210.115 63.6914 209.706 62.776 209.285L63.4029 207.923C62.4986 207.507 61.6013 207.079 60.711 206.639L60.0463 207.983C59.1416 207.536 58.2442 207.077 57.3542 206.605L58.0562 205.28C57.1764 204.814 56.304 204.336 55.4392 203.847L54.7004 205.152C53.8227 204.656 52.9526 204.147 52.0905 203.627L52.8653 202.342C52.0129 201.828 51.1683 201.302 50.3317 200.765L49.5213 202.027C48.6725 201.482 47.8318 200.926 46.9996 200.358L47.8449 199.119C47.0229 198.558 46.2093 197.986 45.4041 197.404L44.5246 198.619C43.7074 198.027 42.8989 197.425 42.0993 196.811L43.0123 195.621C42.2231 195.016 41.4427 194.4 40.6714 193.773L39.7256 194.937C38.9426 194.301 38.1687 193.654 37.4043 192.997L38.3821 191.86C37.628 191.211 36.8831 190.553 36.1477 189.884L35.1386 190.994C34.3924 190.315 33.6558 189.626 32.929 188.928L33.9687 187.846C33.2519 187.157 32.5448 186.458 31.8476 185.749L30.7782 186.801C30.0711 186.082 29.3741 185.353 28.6874 184.615L29.7857 183.594C29.1085 182.866 28.4415 182.128 27.7849 181.381L26.6585 182.372C25.9927 181.615 25.3374 180.848 24.6928 180.073L25.8465 179.114C25.2112 178.349 24.5865 177.576 23.9726 176.794L22.7926 177.72C22.1702 176.927 21.5589 176.125 20.9587 175.314L22.1642 174.421C21.5728 173.623 20.9924 172.815 20.4232 172L19.1931 172.858C18.6164 172.032 18.0511 171.197 17.4973 170.354L18.7511 169.53C18.2054 168.699 17.6712 167.861 17.1486 167.014L15.8721 167.802C15.3431 166.945 14.8258 166.079 14.3205 165.206L15.6186 164.455C15.1207 163.595 14.6347 162.727 14.1606 161.852L12.8417 162.567C12.362 161.681 11.8944 160.788 11.4392 159.888L12.7778 159.211C12.3295 158.325 11.8935 157.431 11.4699 156.531L10.1126 157.169C9.6837 156.258 9.2673 155.339 8.86364 154.414L10.2385 153.814C9.84161 152.904 9.45721 151.988 9.08552 151.065L7.69415 151.626C7.31757 150.691 6.95384 149.749 6.60319 148.802L8.00997 148.281C7.66581 147.351 7.33443 146.415 7.01603 145.473L5.59499 145.953C5.27247 144.999 4.96307 144.038 4.66703 143.072L6.1012 142.633C5.81058 141.685 5.53301 140.731 5.26869 139.771L3.82256 140.169C3.55524 139.199 3.30129 138.223 3.06091 137.242L4.51781 136.885C4.28163 135.921 4.05874 134.952 3.84934 133.978L2.38284 134.293C2.17153 133.31 1.97377 132.322 1.78976 131.33L3.26464 131.056C3.08362 130.08 2.91609 129.098 2.76227 128.112L1.2802 128.344C1.12538 127.351 0.984242 126.355 0.856983 125.354L2.34501 125.165C2.21977 124.18 2.10817 123.19 2.01039 122.197L0.517601 122.344C0.419237 121.345 0.33467 120.341 0.264091 119.334L1.76042 119.229C1.69107 118.24 1.63541 117.246 1.59364 116.249L0.0949501 116.312C0.0528892 115.308 0.0247094 114.301 0.0105964 113.29L1.51045 113.269C1.50349 112.771 1.5 112.271 1.5 111.771C1.5 111.271 1.50349 110.772 1.51045 110.274L0.0105966 110.253C0.0247098 109.242 0.0528896 108.234 0.0949505 107.231L1.59364 107.293C1.63541 106.296 1.69107 105.303 1.76042 104.313L0.264091 104.208C0.334671 103.201 0.419238 102.198 0.517603 101.199L2.01039 101.346C2.10817 100.352 2.21977 99.363 2.34501 98.3779L0.856984 98.1888C0.984244 97.1878 1.12538 96.191 1.28021 95.1988L2.76227 95.4301C2.9161 94.4442 3.08362 93.4629 3.26464 92.4863L1.78976 92.2129C1.97377 91.2202 2.17153 90.2322 2.38284 89.2492L3.84934 89.5644C4.05874 88.5904 4.28163 87.6212 4.51781 86.6573L3.06091 86.3003C3.30129 85.3192 3.55524 84.3434 3.82256 83.3731L5.26869 83.7715C5.53301 82.812 5.81058 81.858 6.1012 80.9096L4.66703 80.4701C4.96308 79.5041 5.27247 78.5437 5.59499 77.5894L7.01603 78.0697C7.33443 77.1276 7.66581 76.1914 8.00997 75.2613L6.60319 74.7407C6.95384 73.7931 7.31757 72.8517 7.69415 71.9168L9.08552 72.4772C9.45721 71.5545 9.84161 70.6381 10.2385 69.7283L8.86364 69.1285C9.2673 68.2033 9.6837 67.2847 10.1126 66.3732L11.4699 67.0118C11.8935 66.1114 12.3295 65.2179 12.7778 64.3316L11.4392 63.6547C11.8944 62.7544 12.362 61.8614 12.8417 60.9758L14.1606 61.6903C14.6346 60.8153 15.1207 59.9476 15.6186 59.0875L14.3205 58.336C14.8258 57.4632 15.3431 56.598 15.8721 55.7408L17.1486 56.5286C17.6712 55.6819 18.2054 54.8431 18.7511 54.0123L17.4973 53.1888C18.051 52.3457 18.6164 51.5109 19.1931 50.6844L20.4232 51.5428C20.9924 50.7272 21.5728 49.9199 22.1642 49.1211L20.9587 48.2285C21.5589 47.4179 22.1702 46.6159 22.7926 45.8229L23.9726 46.7489C24.5865 45.9666 25.2112 45.1931 25.8465 44.4286L24.6928 43.4699C25.3373 42.6943 25.9927 41.9278 26.6585 41.1706L27.7849 42.1612C28.4415 41.4145 29.1085 40.677 29.7857 39.949L28.6874 38.9274C29.3741 38.1891 30.0711 37.4604 30.7782 36.7415L31.8476 37.7933C32.5448 37.0845 33.2519 36.3854 33.9687 35.6961L32.929 34.6149C33.6558 33.9161 34.3924 33.2273 35.1386 32.5487L36.1477 33.6585C36.8831 32.9898 37.628 32.3312 38.3821 31.6829L37.4043 30.5454C38.1687 29.8882 38.9426 29.2415 39.7256 28.6054L40.6714 29.7696C41.4427 29.143 42.2231 28.5269 43.0123 27.9215L42.0993 26.7313C42.8989 26.1179 43.7074 25.5153 44.5246 24.9238L45.4041 26.1389C46.2093 25.5561 47.0229 24.9843 47.8449 24.4235L46.9996 23.1844C47.8318 22.6167 48.6725 22.0602 49.5213 21.5152L50.3317 22.7774C51.1683 22.2402 52.0129 21.7144 52.8653 21.2001L52.0905 19.9158C52.9526 19.3956 53.8227 18.887 54.7004 18.3903L55.4392 19.6958C56.304 19.2063 57.1764 18.7286 58.0562 18.2627L57.3542 16.9371C58.2442 16.4658 59.1416 16.0064 60.0463 15.5592L60.711 16.9039C61.6013 16.4639 62.4986 16.0358 63.4029 15.6199L62.776 14.2571C63.6914 13.8361 64.6137 13.4274 65.5426 13.0312L66.131 14.411C67.0439 14.0217 67.9634 13.6447 68.8891 13.2802L68.3396 11.8845C69.2773 11.5152 70.2215 11.1586 71.1719 10.8149L71.6821 12.2254C72.6148 11.8881 73.5536 11.5633 74.4982 11.2512L74.0277 9.82692C74.9839 9.51101 75.9461 9.20799 76.914 8.91805L77.3445 10.355C78.295 10.0702 79.2512 9.79831 80.2127 9.53938L79.8227 8.09097C80.7943 7.82934 81.7713 7.58079 82.7535 7.34554L83.1029 8.80429C84.0685 8.57303 85.0393 8.35479 86.0149 8.14978L85.7065 6.68184C86.6902 6.47514 87.6788 6.28171 88.6722 6.10173L88.9396 7.5777C89.9174 7.40054 90.8999 7.2366 91.8869 7.08607L91.6607 5.60321C92.6532 5.45184 93.6501 5.31385 94.6513 5.18943L94.8363 6.67798C95.8219 6.5555 96.8118 6.44634 97.8056 6.35071L97.6619 4.85761C98.6615 4.76143 99.6651 4.67874 100.672 4.60973L100.775 6.10623C101.765 6.03841 102.759 5.98398 103.756 5.94313L103.695 4.44439C104.699 4.40327 105.706 4.37572 106.717 4.36192L106.737 5.86178C107.236 5.85498 107.735 5.85156 108.236 5.85156C108.736 5.85156 109.235 5.85498 109.734 5.86178L109.754 4.36192C110.765 4.37572 111.773 4.40327 112.776 4.44439L112.715 5.94313C113.712 5.98398 114.706 6.03841 115.696 6.10623L115.799 4.60973C116.806 4.67874 117.81 4.76143 118.809 4.85761L118.665 6.35072C119.659 6.44634 120.649 6.5555 121.635 6.67798L121.82 5.18943C122.821 5.31385 123.818 5.45184 124.81 5.60321L124.584 7.08607C125.571 7.2366 126.554 7.40054 127.532 7.5777L127.799 6.10173C128.792 6.28171 129.781 6.47514 130.765 6.68184L130.456 8.14978C131.432 8.35479 132.403 8.57303 133.368 8.80429L133.718 7.34554C134.7 7.58079 135.677 7.82934 136.648 8.09097L136.258 9.53938C137.22 9.79831 138.176 10.0702 139.127 10.355L139.557 8.91805C140.525 9.20799 141.487 9.51101 142.443 9.82692L141.973 11.2512C142.918 11.5633 143.856 11.8881 144.789 12.2254L145.299 10.8149C146.25 11.1586 147.194 11.5152 148.131 11.8845L147.582 13.2802C148.508 13.6447 149.427 14.0217 150.34 14.411L150.928 13.0312C151.857 13.4274 152.78 13.8361 153.695 14.2571L153.068 15.6199C153.972 16.0358 154.87 16.4639 155.76 16.9039L156.425 15.5592C157.329 16.0064 158.227 16.4658 159.117 16.9371L158.415 18.2627C159.295 18.7286 160.167 19.2063 161.032 19.6958L161.771 18.3903C162.648 18.887 163.518 19.3956 164.381 19.9158L163.606 21.2001C164.458 21.7144 165.303 22.2403 166.139 22.7774L166.95 21.5152C167.799 22.0602 168.639 22.6167 169.471 23.1844L168.626 24.4235C169.448 24.9843 170.262 25.5561 171.067 26.1389L171.946 24.9238C172.764 25.5153 173.572 26.1179 174.372 26.7313L173.459 27.9215C174.248 28.5269 175.028 29.143 175.8 29.7696L176.746 28.6054C177.529 29.2415 178.302 29.8882 179.067 30.5454L178.089 31.6829C178.843 32.3312 179.588 32.9898 180.323 33.6585L181.333 32.5487C182.079 33.2273 182.815 33.9161 183.542 34.6149L182.502 35.6961C183.219 36.3854 183.926 37.0845 184.623 37.7933L185.693 36.7415C186.4 37.4604 187.097 38.1891 187.784 38.9274L186.685 39.949C187.363 40.677 188.03 41.4145 188.686 42.1612L189.813 41.1706C190.478 41.9278 191.134 42.6943 191.778 43.4699L190.625 44.4286C191.26 45.1931 191.885 45.9666 192.498 46.7489L193.679 45.8229C194.301 46.6159 194.912 47.4179 195.512 48.2285L194.307 49.1211C194.898 49.9199 195.479 50.7272 196.048 51.5428L197.278 50.6844C197.855 51.5109 198.42 52.3457 198.974 53.1888L197.72 54.0123C198.266 54.8431 198.8 55.6819 199.322 56.5286L200.599 55.7408C201.128 56.598 201.645 57.4632 202.151 58.336L200.852 59.0875C201.35 59.9476 201.836 60.8153 202.31 61.6903L203.629 60.9758C204.109 61.8614 204.577 62.7544 205.032 63.6547L203.693 64.3316C204.142 65.218 204.578 66.1114 205.001 67.0118L206.358 66.3732C206.787 67.2847 207.204 68.2033 207.607 69.1286L206.233 69.7284C206.629 70.6381 207.014 71.5545 207.386 72.4772L208.777 71.9168C209.154 72.8517 209.517 73.7931 209.868 74.7407L208.461 75.2613C208.805 76.1914 209.137 77.1276 209.455 78.0697L210.876 77.5894C211.199 78.5437 211.508 79.5041 211.804 80.4701L210.37 80.9096C210.661 81.858 210.938 82.812 211.202 83.7715L212.649 83.3731C212.916 84.3434 213.17 85.3192 213.41 86.3003L211.953 86.6573C212.189 87.6212 212.412 88.5904 212.622 89.5645L214.088 89.2492C214.3 90.2322 214.497 91.2202 214.681 92.2129L213.206 92.4863C213.387 93.4629 213.555 94.4443 213.709 95.4301L215.191 95.1988C215.346 96.1911 215.487 97.1878 215.614 98.1888L214.126 98.3779C214.251 99.363 214.363 100.352 214.461 101.346L215.953 101.199C216.052 102.198 216.136 103.201 216.207 104.208L214.711 104.313C214.78 105.303 214.836 106.296 214.877 107.293L216.376 107.231Z" stroke="#C4C0C0" stroke-width="3" stroke-dasharray="3 3"/>
<ellipse cx="131.353" cy="193.548" rx="64.9957" ry="64.4518" fill="#FABB04"/>
<ellipse cx="56.5653" cy="25.8351" rx="26.1071" ry="25.8351" fill="#4285F4"/>
</svg>
