<svg width="398" height="467" viewBox="0 0 398 467" fill="none" xmlns="http://www.w3.org/2000/svg">
<path d="M397.949 192.994C397.972 193.993 397.987 194.993 397.994 195.995L396.494 196.007C396.498 196.504 396.5 197.002 396.5 197.5C396.5 197.998 396.498 198.496 396.494 198.994L397.994 199.005C397.987 200.007 397.972 201.007 397.949 202.006L396.45 201.972C396.427 202.963 396.397 203.953 396.36 204.94L397.859 204.996C397.822 205.992 397.777 206.986 397.725 207.979L396.227 207.9C396.174 208.894 396.115 209.886 396.047 210.876L397.544 210.978C397.476 211.975 397.401 212.971 397.318 213.964L395.824 213.84C395.742 214.826 395.652 215.81 395.556 216.792L397.048 216.939C396.95 217.935 396.845 218.929 396.732 219.921L395.241 219.751C395.129 220.738 395.009 221.722 394.882 222.705L396.37 222.897C396.242 223.887 396.107 224.874 395.964 225.859L394.479 225.644C394.337 226.625 394.188 227.604 394.031 228.58L395.512 228.818C395.353 229.806 395.187 230.792 395.014 231.776L393.537 231.516C393.365 232.492 393.185 233.465 392.999 234.436L394.472 234.719C394.283 235.699 394.088 236.675 393.885 237.65L392.417 237.344C392.214 238.317 392.005 239.287 391.788 240.255L393.251 240.583C393.033 241.558 392.807 242.53 392.574 243.5L391.115 243.149C390.884 244.112 390.646 245.071 390.4 246.028L391.853 246.4C391.604 247.37 391.348 248.336 391.085 249.299L389.638 248.904C389.377 249.861 389.108 250.815 388.833 251.766L390.274 252.183C389.996 253.142 389.711 254.097 389.419 255.05L387.985 254.61C387.695 255.558 387.397 256.503 387.092 257.445L388.52 257.907C388.212 258.858 387.897 259.806 387.576 260.751L386.156 260.268C385.837 261.206 385.51 262.14 385.177 263.072L386.59 263.577C386.253 264.517 385.91 265.454 385.56 266.387L384.156 265.86C383.807 266.789 383.452 267.715 383.09 268.637L384.486 269.186C384.121 270.115 383.749 271.041 383.371 271.964L381.983 271.394C381.607 272.31 381.224 273.223 380.835 274.132L382.214 274.722C381.82 275.641 381.419 276.557 381.012 277.469L379.642 276.857C379.238 277.762 378.827 278.663 378.409 279.561L379.769 280.194C379.349 281.098 378.921 281.999 378.487 282.896L377.137 282.243C376.705 283.136 376.266 284.025 375.821 284.91L377.161 285.584C376.712 286.476 376.257 287.365 375.795 288.25L374.465 287.555C374.007 288.433 373.542 289.307 373.071 290.177L374.389 290.892C373.914 291.77 373.431 292.644 372.943 293.514L371.635 292.78C371.149 293.644 370.658 294.505 370.159 295.361L371.456 296.115C370.954 296.978 370.446 297.836 369.931 298.691L368.646 297.917C368.135 298.766 367.617 299.61 367.093 300.451L368.366 301.244C367.838 302.092 367.304 302.935 366.763 303.774L365.502 302.962C364.965 303.795 364.423 304.623 363.874 305.447L365.122 306.279C364.569 307.109 364.009 307.936 363.443 308.758L362.208 307.907C361.646 308.724 361.078 309.536 360.504 310.344L361.726 311.213C361.148 312.026 360.564 312.836 359.973 313.64L358.764 312.753C358.178 313.551 357.586 314.345 356.988 315.135L358.184 316.04C357.581 316.837 356.972 317.628 356.358 318.415L355.176 317.491C354.566 318.272 353.95 319.048 353.328 319.819L354.496 320.761C353.87 321.538 353.238 322.31 352.6 323.078L351.447 322.119C350.813 322.881 350.174 323.638 349.53 324.391L350.669 325.367C350.019 326.125 349.364 326.878 348.703 327.626L347.579 326.633C346.923 327.376 346.262 328.113 345.595 328.846L346.704 329.856C346.032 330.594 345.355 331.327 344.672 332.055L343.578 331.028C342.9 331.751 342.217 332.468 341.528 333.181L342.607 334.223C341.913 334.941 341.213 335.653 340.509 336.361L339.446 335.302C338.747 336.004 338.043 336.7 337.333 337.391L338.379 338.466C337.664 339.162 336.944 339.853 336.219 340.539L335.188 339.449C334.468 340.13 333.743 340.805 333.013 341.475L334.027 342.58C333.291 343.255 332.551 343.924 331.805 344.588L330.808 343.467C330.068 344.125 329.323 344.778 328.573 345.426L329.553 346.561C328.798 347.214 328.037 347.86 327.272 348.501L326.309 347.352C325.549 347.988 324.785 348.618 324.015 349.243L324.961 350.407C324.187 351.036 323.408 351.66 322.624 352.277L321.695 351.099C320.917 351.712 320.134 352.319 319.347 352.921L320.257 354.113C319.464 354.719 318.666 355.319 317.863 355.914L316.97 354.708C316.175 355.297 315.374 355.88 314.57 356.457L315.444 357.676C314.633 358.258 313.818 358.834 312.997 359.403L312.142 358.172C311.328 358.737 310.509 359.297 309.687 359.85L310.524 361.095C309.697 361.651 308.865 362.202 308.028 362.747L307.21 361.49C306.38 362.03 305.546 362.564 304.708 363.093L305.507 364.362C304.662 364.894 303.813 365.42 302.96 365.94L302.179 364.659C301.334 365.174 300.485 365.683 299.631 366.185L300.392 367.478C299.532 367.984 298.669 368.484 297.801 368.977L297.059 367.674C296.198 368.163 295.333 368.647 294.463 369.124L295.185 370.439C294.311 370.919 293.432 371.393 292.55 371.86L291.848 370.535C290.973 370.998 290.095 371.455 289.212 371.905L289.894 373.241C289.005 373.695 288.113 374.142 287.216 374.583L286.554 373.237C285.665 373.674 284.772 374.105 283.876 374.529L284.517 375.885C283.616 376.311 282.712 376.73 281.803 377.143L281.182 375.778C280.281 376.188 279.376 376.591 278.467 376.988L279.068 378.363C278.152 378.763 277.233 379.156 276.311 379.542L275.731 378.158C274.819 378.54 273.904 378.916 272.986 379.284L273.544 380.676C272.618 381.048 271.689 381.412 270.757 381.77L270.219 380.37C269.294 380.725 268.365 381.074 267.433 381.415L267.949 382.824C267.014 383.167 266.075 383.503 265.133 383.832L264.638 382.416C263.704 382.743 262.767 383.062 261.827 383.375L262.3 384.798C261.353 385.114 260.402 385.422 259.448 385.724L258.996 384.293C258.053 384.591 257.106 384.883 256.157 385.167L256.587 386.604C255.633 386.89 254.676 387.169 253.715 387.441L253.307 385.998C252.353 386.268 251.397 386.531 250.439 386.787L250.826 388.236C249.861 388.493 248.894 388.744 247.924 388.987L247.559 387.532C246.601 387.773 245.64 388.006 244.676 388.232L245.019 389.693C244.048 389.921 243.074 390.142 242.098 390.356L241.777 388.891C240.808 389.103 239.836 389.308 238.862 389.506L239.161 390.976C238.186 391.174 237.209 391.366 236.23 391.55L235.953 390.075C234.981 390.258 234.006 390.433 233.029 390.602L233.284 392.08C232.299 392.25 231.312 392.412 230.323 392.567L230.09 391.086C229.114 391.239 228.135 391.385 227.154 391.524L227.364 393.009C226.379 393.149 225.391 393.281 224.4 393.406L224.212 391.918C223.229 392.042 222.244 392.16 221.257 392.269L221.423 393.76C220.431 393.871 219.437 393.974 218.44 394.07L218.297 392.576C217.315 392.671 216.33 392.758 215.344 392.839L215.465 394.334C214.472 394.414 213.476 394.488 212.478 394.554L212.379 393.057C211.388 393.123 210.396 393.182 209.401 393.233L209.478 394.731C208.486 394.782 207.492 394.826 206.496 394.862L206.441 393.363C205.454 393.4 204.464 393.429 203.473 393.451L203.506 394.95C202.507 394.972 201.507 394.987 200.505 394.994L200.494 393.495C200.257 393.496 200.02 393.498 199.783 393.499C199.522 393.5 199.261 393.5 199 393.5C198.502 393.5 198.004 393.498 197.506 393.495L197.495 394.994C196.493 394.987 195.492 394.972 194.494 394.95L194.527 393.451C193.536 393.429 192.546 393.4 191.558 393.363L191.503 394.862C190.507 394.826 189.514 394.782 188.522 394.731L188.599 393.233C187.604 393.182 186.612 393.123 185.621 393.057L185.522 394.554C184.524 394.488 183.528 394.414 182.534 394.334L182.656 392.839C181.67 392.758 180.685 392.671 179.703 392.576L179.559 394.07C178.563 393.974 177.569 393.871 176.577 393.76L176.743 392.269C175.756 392.16 174.771 392.042 173.788 391.918L173.6 393.406C172.609 393.281 171.621 393.149 170.636 393.009L170.846 391.524C169.865 391.385 168.886 391.239 167.91 391.086L167.677 392.567C166.688 392.412 165.701 392.25 164.716 392.08L164.971 390.602C163.994 390.433 163.019 390.258 162.047 390.075L161.77 391.55C160.791 391.366 159.814 391.174 158.839 390.976L159.138 389.506C158.164 389.308 157.192 389.103 156.223 388.891L155.902 390.356C154.926 390.142 153.952 389.921 152.981 389.693L153.324 388.232C152.36 388.006 151.399 387.773 150.441 387.532L150.076 388.987C149.106 388.744 148.139 388.493 147.174 388.236L147.561 386.787C146.603 386.531 145.647 386.268 144.694 385.998L144.285 387.441C143.324 387.169 142.367 386.89 141.413 386.604L141.843 385.167C140.894 384.883 139.947 384.591 139.004 384.293L138.552 385.724C137.598 385.422 136.647 385.114 135.7 384.798L136.173 383.375C135.233 383.062 134.296 382.743 133.362 382.416L132.867 383.832C131.925 383.503 130.986 383.167 130.051 382.824L130.567 381.415C129.635 381.074 128.706 380.725 127.781 380.37L127.243 381.77C126.311 381.412 125.382 381.048 124.456 380.676L125.015 379.284C124.096 378.916 123.181 378.54 122.269 378.158L121.689 379.542C120.767 379.156 119.848 378.763 118.933 378.363L119.533 376.988C118.624 376.591 117.719 376.188 116.818 375.778L116.197 377.144C115.288 376.73 114.384 376.311 113.483 375.885L114.124 374.529C113.228 374.105 112.335 373.674 111.446 373.237L110.784 374.583C109.887 374.142 108.995 373.695 108.106 373.241L108.788 371.905C107.905 371.455 107.027 370.998 106.152 370.535L105.45 371.86C104.568 371.393 103.689 370.919 102.815 370.439L103.537 369.124C102.667 368.647 101.802 368.163 100.941 367.674L100.199 368.978C99.3313 368.484 98.4677 367.984 97.6082 367.478L98.3692 366.185C97.5155 365.683 96.666 365.174 95.8206 364.659L95.0402 365.94C94.1868 365.42 93.3377 364.894 92.493 364.362L93.2926 363.093C92.4541 362.564 91.62 362.03 90.7902 361.49L89.9717 362.747C89.1354 362.202 88.3035 361.651 87.4761 361.095L88.3134 359.85C87.4907 359.297 86.6723 358.737 85.8585 358.172L85.0025 359.403C84.1825 358.834 83.3671 358.258 82.5562 357.676L83.4305 356.457C82.6257 355.88 81.8254 355.297 81.0298 354.708L80.1373 355.914C79.3345 355.319 78.5363 354.719 77.7428 354.113L78.6533 352.921C77.8657 352.319 77.0828 351.712 76.3046 351.099L75.3764 352.277C74.5924 351.66 73.8132 351.036 73.0388 350.407L73.9846 349.243C73.2154 348.618 72.451 347.988 71.6915 347.352L70.7283 348.501C69.9629 347.86 69.2023 347.214 68.4468 346.561L69.4271 345.426C68.6772 344.778 67.9323 344.125 67.1925 343.467L66.1953 344.588C65.4495 343.924 64.7088 343.255 63.9733 342.58L64.9871 341.475C64.2569 340.805 63.5317 340.13 62.8117 339.449L61.7813 340.539C61.0558 339.853 60.3356 339.162 59.6206 338.466L60.6672 337.391C59.9575 336.7 59.2531 336.004 58.5539 335.302L57.4913 336.361C56.7867 335.653 56.0874 334.941 55.3935 334.223L56.4719 333.181C55.7833 332.468 55.1 331.751 54.4222 331.029L53.3282 332.055C52.6453 331.327 51.9678 330.594 51.2958 329.856L52.405 328.846C51.7382 328.113 51.0768 327.376 50.421 326.633L49.2967 327.626C48.6359 326.878 47.9807 326.125 47.3312 325.367L48.4703 324.391C47.8257 323.638 47.1867 322.881 46.5535 322.119L45.3998 323.078C44.762 322.31 44.1299 321.538 43.5037 320.761L44.6716 319.819C44.0501 319.048 43.4343 318.272 42.8243 317.491L41.6423 318.415C41.0277 317.628 40.4189 316.837 39.8161 316.04L41.0119 315.135C40.4141 314.345 39.8222 313.551 39.2362 312.753L38.0268 313.64C37.4364 312.836 36.852 312.026 36.2737 311.213L37.4963 310.344C36.9223 309.536 36.3543 308.724 35.7924 307.908L34.5568 308.758C33.9911 307.936 33.4315 307.11 32.8781 306.279L34.1265 305.447C33.5775 304.623 33.0347 303.795 32.498 302.962L31.2372 303.775C30.6964 302.935 30.1618 302.092 29.6335 301.244L30.9065 300.451C30.3828 299.61 29.8652 298.766 29.354 297.917L28.069 298.691C27.5544 297.836 27.046 296.978 26.5441 296.115L27.8406 295.361C27.3425 294.505 26.8507 293.644 26.3653 292.78L25.0575 293.515C24.5687 292.644 24.0864 291.77 23.6106 290.892L24.9295 290.177C24.4581 289.307 23.9932 288.433 23.5348 287.555L22.2052 288.25C21.7433 287.365 21.2879 286.476 20.8391 285.584L22.1792 284.91C21.7339 284.025 21.2953 283.136 20.8632 282.243L19.513 282.896C19.0789 281.999 18.6514 281.098 18.2306 280.194L19.5906 279.561C19.173 278.663 18.7621 277.762 18.3578 276.857L16.9883 277.469C16.5809 276.557 16.1803 275.642 15.7865 274.722L17.1653 274.132C16.7758 273.223 16.3931 272.31 16.0171 271.394L14.6294 271.964C14.2508 271.041 13.8789 270.115 13.5139 269.186L14.9102 268.637C14.548 267.715 14.1927 266.789 13.8443 265.86L12.4398 266.387C12.0897 265.454 11.7465 264.517 11.4103 263.577L12.8227 263.072C12.4897 262.14 12.1635 261.206 11.8443 260.268L10.4243 260.751C10.1026 259.806 9.78792 258.858 9.48031 257.907L10.9076 257.445C10.603 256.503 10.3054 255.558 10.0149 254.61L8.58072 255.05C8.28887 254.097 8.00408 253.142 7.7264 252.184L9.16715 251.766C8.89161 250.815 8.62313 249.861 8.36177 248.904L6.91478 249.299C6.65165 248.336 6.39569 247.37 6.14695 246.4L7.59986 246.028C7.35435 245.071 7.11593 244.112 6.88465 243.149L5.42619 243.5C5.19313 242.53 4.96726 241.558 4.74866 240.583L6.21234 240.255C5.99542 239.287 5.78571 238.317 5.58326 237.344L4.11472 237.65C3.91201 236.675 3.71654 235.699 3.52835 234.719L5.00141 234.436C4.81483 233.465 4.63546 232.492 4.46338 231.515L2.98616 231.776C2.81275 230.792 2.64666 229.806 2.48797 228.818L3.96901 228.58C3.81229 227.604 3.66284 226.625 3.52071 225.644L2.03621 225.859C1.89348 224.874 1.75807 223.887 1.63005 222.897L3.11766 222.704C2.99061 221.722 2.87089 220.738 2.75855 219.751L1.26818 219.921C1.15525 218.929 1.04972 217.935 0.951653 216.938L2.44444 216.792C2.3478 215.81 2.25846 214.826 2.17647 213.84L0.681629 213.964C0.599012 212.971 0.523806 211.975 0.456064 210.977L1.95262 210.876C1.88539 209.886 1.82557 208.894 1.77321 207.9L0.275286 207.978C0.223026 206.986 0.178145 205.992 0.140695 204.996L1.63964 204.94C1.60251 203.952 1.57274 202.963 1.55039 201.972L0.0507701 202.006C0.0282455 201.007 0.0131892 200.007 0.00565442 199.005L1.50561 198.993C1.50187 198.496 1.5 197.998 1.5 197.5C1.5 197.002 1.50187 196.504 1.50561 196.006L0.00565597 195.995C0.0131917 194.993 0.0282489 193.993 0.0507742 192.994L1.55039 193.028C1.57275 192.037 1.60252 191.047 1.63964 190.06L0.140701 190.004C0.178152 189.008 0.223034 188.014 0.275294 187.021L1.77322 187.1C1.82558 186.106 1.8854 185.114 1.95263 184.124L0.456073 184.022C0.523816 183.025 0.599023 182.029 0.68164 181.036L2.17648 181.16C2.25847 180.174 2.34781 179.19 2.44445 178.208L0.951665 178.061C1.04973 177.065 1.15526 176.071 1.26819 175.079L2.75857 175.249C2.8709 174.262 2.99062 173.278 3.11767 172.295L1.63006 172.103C1.75808 171.113 1.89349 170.126 2.03622 169.141L3.52072 169.356C3.66285 168.375 3.8123 167.396 3.96902 166.42L2.48798 166.182C2.64667 165.194 2.81276 164.208 2.98617 163.224L4.46339 163.484C4.63547 162.508 4.81483 161.535 5.00141 160.564L3.52836 160.281C3.71655 159.301 3.91202 158.325 4.11472 157.35L5.58327 157.656C5.78571 156.683 5.99542 155.713 6.21234 154.745L4.74867 154.417C4.96727 153.442 5.19313 152.47 5.4262 151.5L6.88465 151.851C7.11593 150.888 7.35435 149.929 7.59986 148.972L6.14695 148.6C6.39569 147.63 6.65165 146.664 6.91477 145.701L8.36177 146.096C8.62313 145.139 8.8916 144.185 9.16714 143.234L7.72639 142.817C8.00407 141.858 8.28886 140.903 8.58071 139.95L10.0149 140.39C10.3054 139.442 10.603 138.497 10.9075 137.555L9.4803 137.093C9.78791 136.142 10.1026 135.194 10.4243 134.249L11.8443 134.732C12.1635 133.794 12.4897 132.86 12.8227 131.928L11.4103 131.423C11.7465 130.483 12.0897 129.546 12.4398 128.613L13.8442 129.14C14.1927 128.211 14.548 127.285 14.9102 126.363L13.5139 125.814C13.8789 124.885 14.2507 123.959 14.6294 123.036L16.0171 123.606C16.393 122.69 16.7758 121.777 17.1652 120.868L15.7865 120.278C16.1803 119.359 16.5809 118.443 16.9882 117.531L18.3578 118.143C18.762 117.238 19.173 116.337 19.5906 115.439L18.2305 114.806C18.6513 113.902 19.0788 113.001 19.513 112.104L20.8632 112.757C21.2952 111.864 21.7339 110.975 22.1791 110.09L20.8391 109.416C21.2879 108.524 21.7433 107.635 22.2052 106.75L23.5348 107.445C23.9932 106.567 24.4581 105.693 24.9294 104.823L23.6105 104.108C24.0864 103.23 24.5687 102.356 25.0574 101.485L26.3653 102.22C26.8507 101.356 27.3425 100.495 27.8406 99.6393L26.5441 98.8849C27.046 98.0222 27.5544 97.1636 28.069 96.3091L29.3539 97.083C29.8652 96.2342 30.3828 95.3895 30.9065 94.5491L29.6335 93.7557C30.1618 92.908 30.6964 92.0646 31.2371 91.2255L32.498 92.0381C33.0346 91.2054 33.5775 90.3769 34.1264 89.5529L32.8781 88.7213C33.4315 87.8905 33.9911 87.0641 34.5567 86.2421L35.7924 87.0925C36.3543 86.276 36.9223 85.464 37.4963 84.6564L36.2736 83.7874C36.852 82.9737 37.4364 82.1645 38.0268 81.3599L39.2361 82.2473C39.8221 81.4486 40.4141 80.6546 41.0119 79.8651L39.816 78.9596C40.4189 78.1635 41.0276 77.372 41.6423 76.5853L42.8243 77.5088C43.4343 76.728 44.0501 75.952 44.6716 75.1807L43.5036 74.2395C44.1299 73.4623 44.762 72.6899 45.3997 71.9224L46.5534 72.8811C47.1867 72.119 47.8257 71.3617 48.4703 70.6093L47.3312 69.6334C47.9807 68.8753 48.6359 68.1221 49.2967 67.3739L50.421 68.3669C51.0768 67.6244 51.7381 66.8868 52.405 66.1542L51.2958 65.1445C51.9677 64.4063 52.6452 63.6732 53.3282 62.9452L54.4221 63.9715C55.1 63.249 55.7832 62.5316 56.4719 61.8194L55.3935 60.7767C56.0874 60.0591 56.7866 59.3466 57.4912 58.6394L58.5539 59.6981C59.253 58.9963 59.9575 58.2998 60.6672 57.6086L59.6206 56.534C60.3355 55.8376 61.0558 55.1466 61.7813 54.4609L62.8116 55.551C63.5316 54.8704 64.2568 54.1952 64.9871 53.5254L63.9732 52.42C64.7088 51.7453 65.4495 51.0761 66.1952 50.4124L67.1924 51.533C67.9323 50.8745 68.6772 50.2216 69.427 49.5741L68.4467 48.4388C69.2023 47.7864 69.9628 47.1397 70.7283 46.4985L71.6915 47.6485C72.4509 47.0123 73.2153 46.3818 73.9846 45.7569L73.0388 44.5927C73.8131 43.9636 74.5923 43.3402 75.3764 42.7226L76.3046 43.9009C77.0827 43.2879 77.8656 42.6806 78.6532 42.079L77.7428 40.8869C78.5362 40.2809 79.3344 39.6807 80.1373 39.0864L81.0297 40.292C81.8254 39.7031 82.6256 39.1199 83.4304 38.5426L82.5561 37.3237C83.367 36.7421 84.1825 36.1663 85.0025 35.5966L85.8584 36.8284C86.6723 36.2629 87.4906 35.7034 88.3134 35.1498L87.4761 33.9053C88.3035 33.3486 89.1354 32.798 89.9716 32.2534L90.7902 33.5104C91.6199 32.97 92.4541 32.4357 93.2925 31.9075L92.4929 30.6383C93.3377 30.1061 94.1868 29.58 95.0401 29.0601L95.8205 30.3411C96.6659 29.8261 97.5155 29.3173 98.3692 28.8146L97.6081 27.522C98.4676 27.0159 99.3313 26.5161 100.199 26.0225L100.941 27.3264C101.802 26.8366 102.667 26.353 103.537 25.8757L102.815 24.5609C103.689 24.0807 104.568 23.6069 105.45 23.1396L106.152 24.4652C107.027 24.002 107.905 23.5453 108.788 23.0949L108.106 21.7589C108.995 21.3051 109.887 20.8578 110.784 20.4169L111.446 21.763C112.335 21.326 113.228 20.8954 114.124 20.4713L113.483 19.1154C114.384 18.6892 115.288 18.2696 116.197 17.8565L116.818 19.222C117.719 18.812 118.624 18.4086 119.533 18.0118L118.932 16.6372C119.848 16.2375 120.767 15.8444 121.689 15.458L122.269 16.8416C123.181 16.4597 124.096 16.0844 125.014 15.7158L124.456 14.3237C125.382 13.9523 126.311 13.5876 127.243 13.2297L127.781 14.6301C128.706 14.2748 129.635 13.9263 130.567 13.5846L130.051 12.1763C130.986 11.8334 131.925 11.4973 132.867 11.168L133.362 12.5839C134.296 12.2575 135.233 11.9377 136.173 11.6249L135.7 10.2016C136.647 9.88632 137.598 9.57794 138.552 9.2765L139.004 10.7068C139.947 10.4086 140.894 10.1172 141.843 9.83279L141.413 8.39587C142.367 8.11001 143.324 7.83108 144.285 7.55912L144.693 9.00236C145.647 8.73245 146.603 8.46947 147.561 8.21348L147.174 6.76424C148.139 6.50678 149.106 6.25633 150.076 6.01295L150.441 7.46787C151.399 7.22749 152.36 6.99406 153.324 6.76764L152.981 5.3074C153.952 5.07926 154.926 4.85818 155.902 4.64422L156.223 6.10945C157.192 5.8971 158.164 5.69181 159.138 5.49364L158.839 4.02373C159.814 3.82554 160.791 3.63443 161.77 3.45043L162.047 4.92465C163.019 4.74207 163.994 4.56655 164.971 4.39816L164.716 2.91995C165.701 2.75029 166.688 2.58781 167.677 2.43256L167.91 3.91443C168.886 3.76121 169.865 3.61509 170.846 3.47613L170.636 1.99095C171.621 1.85135 172.609 1.71892 173.6 1.59371L173.788 3.08186C174.771 2.95759 175.756 2.84048 176.743 2.7306L176.577 1.2398C177.569 1.12942 178.563 1.02627 179.56 0.930412L179.703 2.42352C180.685 2.329 181.67 2.24163 182.656 2.16145L182.535 0.666382C183.528 0.585602 184.524 0.512069 185.522 0.445835L185.621 1.94254C186.612 1.8768 187.604 1.8183 188.599 1.7671L188.522 0.269088C189.514 0.218013 190.508 0.174149 191.504 0.137546L191.559 1.63653C192.546 1.60023 193.536 1.57113 194.527 1.54927L194.494 0.049633C195.493 0.0276126 196.493 0.0128936 197.495 0.00552766L197.506 1.50549C198.004 1.50183 198.502 1.5 199 1.5C199.498 1.5 199.996 1.50183 200.494 1.50549L200.505 0.00552934C201.507 0.0128964 202.508 0.0276164 203.506 0.0496379L203.473 1.54927C204.464 1.57113 205.454 1.60024 206.442 1.63654L206.497 0.137553C207.493 0.174157 208.486 0.218022 209.478 0.269097L209.401 1.76711C210.396 1.81831 211.388 1.87681 212.379 1.94255L212.478 0.445846C213.476 0.51208 214.472 0.585615 215.466 0.666396L215.344 2.16146C216.33 2.24164 217.315 2.32902 218.297 2.42353L218.441 0.930424C219.437 1.02628 220.431 1.12943 221.423 1.23982L221.257 2.73061C222.244 2.8405 223.229 2.9576 224.212 3.08187L224.4 1.59372C225.391 1.71893 226.379 1.85136 227.364 1.99096L227.154 3.47614C228.135 3.6151 229.114 3.76122 230.09 3.91444L230.323 2.43257C231.312 2.58782 232.299 2.7503 233.284 2.91997L233.029 4.39818C234.006 4.56657 234.981 4.74208 235.953 4.92466L236.23 3.45044C237.209 3.63444 238.186 3.82556 239.161 4.02374L238.862 5.49365C239.836 5.69182 240.808 5.8971 241.777 6.10945L242.098 4.64422C243.074 4.85819 244.048 5.07927 245.019 5.30741L244.676 6.76764C245.64 6.99406 246.601 7.22749 247.559 7.46786L247.924 6.01295C248.894 6.25633 249.861 6.50677 250.826 6.76423L250.439 8.21347C251.397 8.46947 252.353 8.73244 253.306 9.00235L253.715 7.55911C254.675 7.83107 255.633 8.11 256.587 8.39586L256.157 9.83278C257.106 10.1172 258.053 10.4086 258.996 10.7067L259.448 9.27649C260.402 9.57793 261.353 9.88631 262.3 10.2016L261.827 11.6248C262.767 11.9377 263.704 12.2574 264.638 12.5839L265.133 11.168C266.075 11.4972 267.014 11.8334 267.949 12.1763L267.433 13.5846C268.365 13.9263 269.294 14.2748 270.219 14.63L270.757 13.2297C271.689 13.5876 272.618 13.9523 273.544 14.3237L272.985 15.7158C273.904 16.0844 274.819 16.4597 275.731 16.8415L276.311 15.458C277.233 15.8444 278.152 16.2374 279.067 16.6371L278.467 18.0118C279.376 18.4086 280.281 18.812 281.182 19.2219L281.803 17.8565C282.712 18.2695 283.616 18.6892 284.517 19.1153L283.876 20.4713C284.772 20.8954 285.665 21.326 286.554 21.763L287.216 20.4169C288.113 20.8577 289.005 21.3051 289.894 21.7589L289.212 23.0949C290.095 23.5452 290.973 24.002 291.848 24.4651L292.55 23.1395C293.432 23.6069 294.311 24.0807 295.185 24.5608L294.463 25.8757C295.333 26.353 296.198 26.8365 297.059 27.3264L297.801 26.0225C298.669 26.516 299.532 27.0159 300.392 27.522L299.631 28.8146C300.484 29.3172 301.334 29.8261 302.179 30.3411L302.96 29.0601C303.813 29.58 304.662 30.1061 305.507 30.6383L304.707 31.9074C305.546 32.4356 306.38 32.97 307.21 33.5103L308.028 32.2533C308.865 32.7979 309.696 33.3486 310.524 33.9053L309.687 35.1498C310.509 35.7034 311.328 36.2629 312.142 36.8284L312.997 35.5966C313.817 36.1663 314.633 36.7421 315.444 37.3237L314.57 38.5426C315.374 39.1199 316.175 39.703 316.97 40.292L317.863 39.0864C318.666 39.6807 319.464 40.2809 320.257 40.8869L319.347 42.079C320.134 42.6805 320.917 43.2878 321.695 43.9008L322.624 42.7225C323.408 43.3402 324.187 43.9636 324.961 44.5926L324.015 45.7569C324.785 46.3818 325.549 47.0123 326.309 47.6484L327.272 46.4985C328.037 47.1397 328.798 47.7864 329.553 48.4388L328.573 49.5741C329.323 50.2215 330.068 50.8745 330.808 51.5329L331.805 50.4124C332.551 51.0761 333.291 51.7453 334.027 52.4199L333.013 53.5254C333.743 54.1952 334.468 54.8704 335.188 55.5509L336.219 54.4608C336.944 55.1465 337.664 55.8376 338.379 56.534L337.333 57.6085C338.042 58.2998 338.747 58.9963 339.446 59.6981L340.509 58.6394C341.213 59.3466 341.913 60.059 342.606 60.7767L341.528 61.8193C342.217 62.5316 342.9 63.249 343.578 63.9715L344.672 62.9452C345.355 63.6732 346.032 64.4063 346.704 65.1444L345.595 66.1542C346.262 66.8867 346.923 67.6243 347.579 68.3669L348.703 67.3739C349.364 68.1221 350.019 68.8752 350.669 69.6333L349.53 70.6093C350.174 71.3617 350.813 72.1189 351.447 72.881L352.6 71.9224C353.238 72.6899 353.87 73.4623 354.496 74.2394L353.328 75.1806C353.95 75.9519 354.566 76.728 355.176 77.5088L356.358 76.5853C356.972 77.372 357.581 78.1634 358.184 78.9595L356.988 79.8651C357.586 80.6545 358.178 81.4486 358.764 82.2472L359.973 81.3599C360.564 82.1645 361.148 82.9737 361.726 83.7874L360.504 84.6564C361.078 85.464 361.646 86.276 362.208 87.0925L363.443 86.2421C364.009 87.064 364.569 87.8904 365.122 88.7212L363.874 89.5528C364.422 90.3769 364.965 91.2053 365.502 92.0381L366.763 91.2255C367.304 92.0646 367.838 92.908 368.366 93.7557L367.093 94.5491C367.617 95.3895 368.135 96.2342 368.646 97.083L369.931 96.3091C370.446 97.1635 370.954 98.0222 371.456 98.8849L370.159 99.6392C370.658 100.495 371.149 101.356 371.635 102.22L372.943 101.485C373.431 102.356 373.914 103.23 374.389 104.108L373.071 104.823C373.542 105.693 374.007 106.567 374.465 107.445L375.795 106.75C376.257 107.635 376.712 108.524 377.161 109.416L375.821 110.09C376.266 110.975 376.705 111.864 377.137 112.757L378.487 112.104C378.921 113.001 379.349 113.902 379.769 114.806L378.409 115.439C378.827 116.337 379.238 117.238 379.642 118.143L381.012 117.531C381.419 118.443 381.82 119.358 382.214 120.278L380.835 120.868C381.224 121.777 381.607 122.69 381.983 123.606L383.371 123.036C383.749 123.959 384.121 124.885 384.486 125.814L383.09 126.363C383.452 127.285 383.807 128.211 384.156 129.14L385.56 128.613C385.91 129.546 386.253 130.483 386.59 131.423L385.177 131.928C385.51 132.86 385.836 133.794 386.156 134.732L387.576 134.249C387.897 135.194 388.212 136.142 388.52 137.093L387.092 137.555C387.397 138.497 387.695 139.442 387.985 140.39L389.419 139.95C389.711 140.903 389.996 141.858 390.274 142.816L388.833 143.234C389.108 144.185 389.377 145.139 389.638 146.096L391.085 145.701C391.348 146.664 391.604 147.63 391.853 148.6L390.4 148.972C390.646 149.929 390.884 150.888 391.115 151.851L392.574 151.5C392.807 152.47 393.033 153.442 393.251 154.417L391.788 154.745C392.005 155.713 392.214 156.683 392.417 157.656L393.885 157.35C394.088 158.325 394.283 159.301 394.472 160.281L392.999 160.564C393.185 161.535 393.365 162.508 393.537 163.485L395.014 163.224C395.187 164.208 395.353 165.194 395.512 166.182L394.031 166.42C394.188 167.396 394.337 168.375 394.479 169.356L395.964 169.141C396.107 170.126 396.242 171.113 396.37 172.103L394.882 172.296C395.009 173.278 395.129 174.262 395.241 175.249L396.732 175.079C396.845 176.071 396.95 177.065 397.048 178.062L395.556 178.208C395.652 179.19 395.742 180.174 395.824 181.16L397.318 181.036C397.401 182.029 397.476 183.025 397.544 184.023L396.047 184.124C396.115 185.114 396.174 186.106 396.227 187.1L397.725 187.022C397.777 188.014 397.822 189.008 397.859 190.004L396.36 190.06C396.397 191.048 396.427 192.037 396.45 193.028L397.949 192.994Z" stroke="#C4C0C0" stroke-width="3" stroke-dasharray="3 3"/>
<ellipse cx="152.5" cy="348.5" rx="119.5" ry="118.5" fill="#34A852"/>
<ellipse cx="298" cy="47.5" rx="48" ry="47.5" fill="#FABB04"/>
</svg>
