<svg width="398" height="492" viewBox="0 0 398 492" fill="none" xmlns="http://www.w3.org/2000/svg">
<path d="M397.949 242.994C397.972 243.993 397.987 244.993 397.994 245.995L396.494 246.007C396.498 246.504 396.5 247.002 396.5 247.5C396.5 247.998 396.498 248.496 396.494 248.994L397.994 249.005C397.987 250.007 397.972 251.007 397.949 252.006L396.45 251.972C396.427 252.963 396.397 253.953 396.36 254.94L397.859 254.996C397.822 255.992 397.777 256.986 397.725 257.979L396.227 257.9C396.174 258.894 396.115 259.886 396.047 260.876L397.544 260.978C397.476 261.975 397.401 262.971 397.318 263.964L395.824 263.84C395.742 264.826 395.652 265.81 395.556 266.792L397.048 266.939C396.95 267.935 396.845 268.929 396.732 269.921L395.241 269.751C395.129 270.738 395.009 271.722 394.882 272.705L396.37 272.897C396.242 273.887 396.107 274.874 395.964 275.859L394.479 275.644C394.337 276.625 394.188 277.604 394.031 278.58L395.512 278.818C395.353 279.806 395.187 280.792 395.014 281.776L393.537 281.516C393.365 282.492 393.185 283.465 392.999 284.436L394.472 284.719C394.283 285.699 394.088 286.675 393.885 287.65L392.417 287.344C392.214 288.317 392.005 289.287 391.788 290.255L393.251 290.583C393.033 291.558 392.807 292.53 392.574 293.5L391.115 293.149C390.884 294.112 390.646 295.071 390.4 296.028L391.853 296.4C391.604 297.37 391.348 298.336 391.085 299.299L389.638 298.904C389.377 299.861 389.108 300.815 388.833 301.766L390.274 302.183C389.996 303.142 389.711 304.097 389.419 305.05L387.985 304.61C387.695 305.558 387.397 306.503 387.092 307.445L388.52 307.907C388.212 308.858 387.897 309.806 387.576 310.751L386.156 310.268C385.837 311.206 385.51 312.14 385.177 313.072L386.59 313.577C386.253 314.517 385.91 315.454 385.56 316.387L384.156 315.86C383.807 316.789 383.452 317.715 383.09 318.637L384.486 319.186C384.121 320.115 383.749 321.041 383.371 321.964L381.983 321.394C381.607 322.31 381.224 323.223 380.835 324.132L382.214 324.722C381.82 325.641 381.419 326.557 381.012 327.469L379.642 326.857C379.238 327.762 378.827 328.663 378.409 329.561L379.769 330.194C379.349 331.098 378.921 331.999 378.487 332.896L377.137 332.243C376.705 333.136 376.266 334.025 375.821 334.91L377.161 335.584C376.712 336.476 376.257 337.365 375.795 338.25L374.465 337.555C374.007 338.433 373.542 339.307 373.071 340.177L374.389 340.892C373.914 341.77 373.431 342.644 372.943 343.514L371.635 342.78C371.149 343.644 370.658 344.505 370.159 345.361L371.456 346.115C370.954 346.978 370.446 347.836 369.931 348.691L368.646 347.917C368.135 348.766 367.617 349.61 367.093 350.451L368.366 351.244C367.838 352.092 367.304 352.935 366.763 353.774L365.502 352.962C364.965 353.795 364.423 354.623 363.874 355.447L365.122 356.279C364.569 357.109 364.009 357.936 363.443 358.758L362.208 357.907C361.646 358.724 361.078 359.536 360.504 360.344L361.726 361.213C361.148 362.026 360.564 362.836 359.973 363.64L358.764 362.753C358.178 363.551 357.586 364.345 356.988 365.135L358.184 366.04C357.581 366.837 356.972 367.628 356.358 368.415L355.176 367.491C354.566 368.272 353.95 369.048 353.328 369.819L354.496 370.761C353.87 371.538 353.238 372.31 352.6 373.078L351.447 372.119C350.813 372.881 350.174 373.638 349.53 374.391L350.669 375.367C350.019 376.125 349.364 376.878 348.703 377.626L347.579 376.633C346.923 377.376 346.262 378.113 345.595 378.846L346.704 379.856C346.032 380.594 345.355 381.327 344.672 382.055L343.578 381.028C342.9 381.751 342.217 382.468 341.528 383.181L342.607 384.223C341.913 384.941 341.213 385.653 340.509 386.361L339.446 385.302C338.747 386.004 338.043 386.7 337.333 387.391L338.379 388.466C337.664 389.162 336.944 389.853 336.219 390.539L335.188 389.449C334.468 390.13 333.743 390.805 333.013 391.475L334.027 392.58C333.291 393.255 332.551 393.924 331.805 394.588L330.808 393.467C330.068 394.125 329.323 394.778 328.573 395.426L329.553 396.561C328.798 397.214 328.037 397.86 327.272 398.501L326.309 397.352C325.549 397.988 324.785 398.618 324.015 399.243L324.961 400.407C324.187 401.036 323.408 401.66 322.624 402.277L321.695 401.099C320.917 401.712 320.134 402.319 319.347 402.921L320.257 404.113C319.464 404.719 318.666 405.319 317.863 405.914L316.97 404.708C316.175 405.297 315.374 405.88 314.57 406.457L315.444 407.676C314.633 408.258 313.818 408.834 312.997 409.403L312.142 408.172C311.328 408.737 310.509 409.297 309.687 409.85L310.524 411.095C309.697 411.651 308.865 412.202 308.028 412.747L307.21 411.49C306.38 412.03 305.546 412.564 304.708 413.093L305.507 414.362C304.662 414.894 303.813 415.42 302.96 415.94L302.179 414.659C301.334 415.174 300.485 415.683 299.631 416.185L300.392 417.478C299.532 417.984 298.669 418.484 297.801 418.977L297.059 417.674C296.198 418.163 295.333 418.647 294.463 419.124L295.185 420.439C294.311 420.919 293.432 421.393 292.55 421.86L291.848 420.535C290.973 420.998 290.095 421.455 289.212 421.905L289.894 423.241C289.005 423.695 288.113 424.142 287.216 424.583L286.554 423.237C285.665 423.674 284.772 424.105 283.876 424.529L284.517 425.885C283.616 426.311 282.712 426.73 281.803 427.143L281.182 425.778C280.281 426.188 279.376 426.591 278.467 426.988L279.068 428.363C278.152 428.763 277.233 429.156 276.311 429.542L275.731 428.158C274.819 428.54 273.904 428.916 272.986 429.284L273.544 430.676C272.618 431.048 271.689 431.412 270.757 431.77L270.219 430.37C269.294 430.725 268.365 431.074 267.433 431.415L267.949 432.824C267.014 433.167 266.075 433.503 265.133 433.832L264.638 432.416C263.704 432.743 262.767 433.062 261.827 433.375L262.3 434.798C261.353 435.114 260.402 435.422 259.448 435.724L258.996 434.293C258.053 434.591 257.106 434.883 256.157 435.167L256.587 436.604C255.633 436.89 254.676 437.169 253.715 437.441L253.307 435.998C252.353 436.268 251.397 436.531 250.439 436.787L250.826 438.236C249.861 438.493 248.894 438.744 247.924 438.987L247.559 437.532C246.601 437.773 245.64 438.006 244.676 438.232L245.019 439.693C244.048 439.921 243.074 440.142 242.098 440.356L241.777 438.891C240.808 439.103 239.836 439.308 238.862 439.506L239.161 440.976C238.186 441.174 237.209 441.366 236.23 441.55L235.953 440.075C234.981 440.258 234.006 440.433 233.029 440.602L233.284 442.08C232.299 442.25 231.312 442.412 230.323 442.567L230.09 441.086C229.114 441.239 228.135 441.385 227.154 441.524L227.364 443.009C226.379 443.149 225.391 443.281 224.4 443.406L224.212 441.918C223.229 442.042 222.244 442.16 221.257 442.269L221.423 443.76C220.431 443.871 219.437 443.974 218.44 444.07L218.297 442.576C217.315 442.671 216.33 442.758 215.344 442.839L215.465 444.334C214.472 444.414 213.476 444.488 212.478 444.554L212.379 443.057C211.388 443.123 210.396 443.182 209.401 443.233L209.478 444.731C208.486 444.782 207.492 444.826 206.496 444.862L206.441 443.363C205.454 443.4 204.464 443.429 203.473 443.451L203.506 444.95C202.507 444.972 201.507 444.987 200.505 444.994L200.494 443.495C200.257 443.496 200.02 443.498 199.783 443.499C199.522 443.5 199.261 443.5 199 443.5C198.502 443.5 198.004 443.498 197.506 443.495L197.495 444.994C196.493 444.987 195.492 444.972 194.494 444.95L194.527 443.451C193.536 443.429 192.546 443.4 191.558 443.363L191.503 444.862C190.507 444.826 189.514 444.782 188.522 444.731L188.599 443.233C187.604 443.182 186.612 443.123 185.621 443.057L185.522 444.554C184.524 444.488 183.528 444.414 182.534 444.334L182.656 442.839C181.67 442.758 180.685 442.671 179.703 442.576L179.559 444.07C178.563 443.974 177.569 443.871 176.577 443.76L176.743 442.269C175.756 442.16 174.771 442.042 173.788 441.918L173.6 443.406C172.609 443.281 171.621 443.149 170.636 443.009L170.846 441.524C169.865 441.385 168.886 441.239 167.91 441.086L167.677 442.567C166.688 442.412 165.701 442.25 164.716 442.08L164.971 440.602C163.994 440.433 163.019 440.258 162.047 440.075L161.77 441.55C160.791 441.366 159.814 441.174 158.839 440.976L159.138 439.506C158.164 439.308 157.192 439.103 156.223 438.891L155.902 440.356C154.926 440.142 153.952 439.921 152.981 439.693L153.324 438.232C152.36 438.006 151.399 437.773 150.441 437.532L150.076 438.987C149.106 438.744 148.139 438.493 147.174 438.236L147.561 436.787C146.603 436.531 145.647 436.268 144.694 435.998L144.285 437.441C143.324 437.169 142.367 436.89 141.413 436.604L141.843 435.167C140.894 434.883 139.947 434.591 139.004 434.293L138.552 435.724C137.598 435.422 136.647 435.114 135.7 434.798L136.173 433.375C135.233 433.062 134.296 432.743 133.362 432.416L132.867 433.832C131.925 433.503 130.986 433.167 130.051 432.824L130.567 431.415C129.635 431.074 128.706 430.725 127.781 430.37L127.243 431.77C126.311 431.412 125.382 431.048 124.456 430.676L125.015 429.284C124.096 428.916 123.181 428.54 122.269 428.158L121.689 429.542C120.767 429.156 119.848 428.763 118.933 428.363L119.533 426.988C118.624 426.591 117.719 426.188 116.818 425.778L116.197 427.144C115.288 426.73 114.384 426.311 113.483 425.885L114.124 424.529C113.228 424.105 112.335 423.674 111.446 423.237L110.784 424.583C109.887 424.142 108.995 423.695 108.106 423.241L108.788 421.905C107.905 421.455 107.027 420.998 106.152 420.535L105.45 421.86C104.568 421.393 103.689 420.919 102.815 420.439L103.537 419.124C102.667 418.647 101.802 418.163 100.941 417.674L100.199 418.978C99.3313 418.484 98.4677 417.984 97.6082 417.478L98.3692 416.185C97.5155 415.683 96.666 415.174 95.8206 414.659L95.0402 415.94C94.1868 415.42 93.3377 414.894 92.493 414.362L93.2926 413.093C92.4541 412.564 91.62 412.03 90.7902 411.49L89.9717 412.747C89.1354 412.202 88.3035 411.651 87.4761 411.095L88.3134 409.85C87.4907 409.297 86.6723 408.737 85.8585 408.172L85.0025 409.403C84.1825 408.834 83.3671 408.258 82.5562 407.676L83.4305 406.457C82.6257 405.88 81.8254 405.297 81.0298 404.708L80.1373 405.914C79.3345 405.319 78.5363 404.719 77.7428 404.113L78.6533 402.921C77.8657 402.319 77.0828 401.712 76.3046 401.099L75.3764 402.277C74.5924 401.66 73.8132 401.036 73.0388 400.407L73.9846 399.243C73.2154 398.618 72.451 397.988 71.6915 397.352L70.7283 398.501C69.9629 397.86 69.2023 397.214 68.4468 396.561L69.4271 395.426C68.6772 394.778 67.9323 394.125 67.1925 393.467L66.1953 394.588C65.4495 393.924 64.7088 393.255 63.9733 392.58L64.9871 391.475C64.2569 390.805 63.5317 390.13 62.8117 389.449L61.7813 390.539C61.0558 389.853 60.3356 389.162 59.6206 388.466L60.6672 387.391C59.9575 386.7 59.2531 386.004 58.5539 385.302L57.4913 386.361C56.7867 385.653 56.0874 384.941 55.3935 384.223L56.4719 383.181C55.7833 382.468 55.1 381.751 54.4222 381.029L53.3282 382.055C52.6453 381.327 51.9678 380.594 51.2958 379.856L52.405 378.846C51.7382 378.113 51.0768 377.376 50.421 376.633L49.2967 377.626C48.6359 376.878 47.9807 376.125 47.3312 375.367L48.4703 374.391C47.8257 373.638 47.1867 372.881 46.5535 372.119L45.3998 373.078C44.762 372.31 44.1299 371.538 43.5037 370.761L44.6716 369.819C44.0501 369.048 43.4343 368.272 42.8243 367.491L41.6423 368.415C41.0277 367.628 40.4189 366.837 39.8161 366.04L41.0119 365.135C40.4141 364.345 39.8222 363.551 39.2362 362.753L38.0268 363.64C37.4364 362.836 36.852 362.026 36.2737 361.213L37.4963 360.344C36.9223 359.536 36.3543 358.724 35.7924 357.908L34.5568 358.758C33.9911 357.936 33.4315 357.11 32.8781 356.279L34.1265 355.447C33.5775 354.623 33.0347 353.795 32.498 352.962L31.2372 353.775C30.6964 352.935 30.1618 352.092 29.6335 351.244L30.9065 350.451C30.3828 349.61 29.8652 348.766 29.354 347.917L28.069 348.691C27.5544 347.836 27.046 346.978 26.5441 346.115L27.8406 345.361C27.3425 344.505 26.8507 343.644 26.3653 342.78L25.0575 343.515C24.5687 342.644 24.0864 341.77 23.6106 340.892L24.9295 340.177C24.4581 339.307 23.9932 338.433 23.5348 337.555L22.2052 338.25C21.7433 337.365 21.2879 336.476 20.8391 335.584L22.1792 334.91C21.7339 334.025 21.2953 333.136 20.8632 332.243L19.513 332.896C19.0789 331.999 18.6514 331.098 18.2306 330.194L19.5906 329.561C19.173 328.663 18.7621 327.762 18.3578 326.857L16.9883 327.469C16.5809 326.557 16.1803 325.642 15.7865 324.722L17.1653 324.132C16.7758 323.223 16.3931 322.31 16.0171 321.394L14.6294 321.964C14.2508 321.041 13.8789 320.115 13.5139 319.186L14.9102 318.637C14.548 317.715 14.1927 316.789 13.8443 315.86L12.4398 316.387C12.0897 315.454 11.7465 314.517 11.4103 313.577L12.8227 313.072C12.4897 312.14 12.1635 311.206 11.8443 310.268L10.4243 310.751C10.1026 309.806 9.78792 308.858 9.48031 307.907L10.9076 307.445C10.603 306.503 10.3054 305.558 10.0149 304.61L8.58072 305.05C8.28887 304.097 8.00408 303.142 7.7264 302.184L9.16715 301.766C8.89161 300.815 8.62313 299.861 8.36177 298.904L6.91478 299.299C6.65165 298.336 6.39569 297.37 6.14695 296.4L7.59986 296.028C7.35435 295.071 7.11593 294.112 6.88465 293.149L5.42619 293.5C5.19313 292.53 4.96726 291.558 4.74866 290.583L6.21234 290.255C5.99542 289.287 5.78571 288.317 5.58326 287.344L4.11472 287.65C3.91201 286.675 3.71654 285.699 3.52835 284.719L5.00141 284.436C4.81483 283.465 4.63546 282.492 4.46338 281.515L2.98616 281.776C2.81275 280.792 2.64666 279.806 2.48797 278.818L3.96901 278.58C3.81229 277.604 3.66284 276.625 3.52071 275.644L2.03621 275.859C1.89348 274.874 1.75807 273.887 1.63005 272.897L3.11766 272.704C2.99061 271.722 2.87089 270.738 2.75855 269.751L1.26818 269.921C1.15525 268.929 1.04972 267.935 0.951653 266.938L2.44444 266.792C2.3478 265.81 2.25846 264.826 2.17647 263.84L0.681629 263.964C0.599012 262.971 0.523806 261.975 0.456064 260.977L1.95262 260.876C1.88539 259.886 1.82557 258.894 1.77321 257.9L0.275286 257.978C0.223026 256.986 0.178145 255.992 0.140695 254.996L1.63964 254.94C1.60251 253.952 1.57274 252.963 1.55039 251.972L0.0507701 252.006C0.0282455 251.007 0.0131892 250.007 0.00565442 249.005L1.50561 248.993C1.50187 248.496 1.5 247.998 1.5 247.5C1.5 247.002 1.50187 246.504 1.50561 246.006L0.00565597 245.995C0.0131917 244.993 0.0282489 243.993 0.0507742 242.994L1.55039 243.028C1.57275 242.037 1.60252 241.047 1.63964 240.06L0.140701 240.004C0.178152 239.008 0.223034 238.014 0.275294 237.021L1.77322 237.1C1.82558 236.106 1.8854 235.114 1.95263 234.124L0.456073 234.022C0.523816 233.025 0.599023 232.029 0.68164 231.036L2.17648 231.16C2.25847 230.174 2.34781 229.19 2.44445 228.208L0.951665 228.061C1.04973 227.065 1.15526 226.071 1.26819 225.079L2.75857 225.249C2.8709 224.262 2.99062 223.278 3.11767 222.295L1.63006 222.103C1.75808 221.113 1.89349 220.126 2.03622 219.141L3.52072 219.356C3.66285 218.375 3.8123 217.396 3.96902 216.42L2.48798 216.182C2.64667 215.194 2.81276 214.208 2.98617 213.224L4.46339 213.484C4.63547 212.508 4.81483 211.535 5.00141 210.564L3.52836 210.281C3.71655 209.301 3.91202 208.325 4.11472 207.35L5.58327 207.656C5.78571 206.683 5.99542 205.713 6.21234 204.745L4.74867 204.417C4.96727 203.442 5.19313 202.47 5.4262 201.5L6.88465 201.851C7.11593 200.888 7.35435 199.929 7.59986 198.972L6.14695 198.6C6.39569 197.63 6.65165 196.664 6.91477 195.701L8.36177 196.096C8.62313 195.139 8.8916 194.185 9.16714 193.234L7.72639 192.817C8.00407 191.858 8.28886 190.903 8.58071 189.95L10.0149 190.39C10.3054 189.442 10.603 188.497 10.9075 187.555L9.4803 187.093C9.78791 186.142 10.1026 185.194 10.4243 184.249L11.8443 184.732C12.1635 183.794 12.4897 182.86 12.8227 181.928L11.4103 181.423C11.7465 180.483 12.0897 179.546 12.4398 178.613L13.8442 179.14C14.1927 178.211 14.548 177.285 14.9102 176.363L13.5139 175.814C13.8789 174.885 14.2507 173.959 14.6294 173.036L16.0171 173.606C16.393 172.69 16.7758 171.777 17.1652 170.868L15.7865 170.278C16.1803 169.359 16.5809 168.443 16.9882 167.531L18.3578 168.143C18.762 167.238 19.173 166.337 19.5906 165.439L18.2305 164.806C18.6513 163.902 19.0788 163.001 19.513 162.104L20.8632 162.757C21.2952 161.864 21.7339 160.975 22.1791 160.09L20.8391 159.416C21.2879 158.524 21.7433 157.635 22.2052 156.75L23.5348 157.445C23.9932 156.567 24.4581 155.693 24.9294 154.823L23.6105 154.108C24.0864 153.23 24.5687 152.356 25.0574 151.485L26.3653 152.22C26.8507 151.356 27.3425 150.495 27.8406 149.639L26.5441 148.885C27.046 148.022 27.5544 147.164 28.069 146.309L29.3539 147.083C29.8652 146.234 30.3828 145.39 30.9065 144.549L29.6335 143.756C30.1618 142.908 30.6964 142.065 31.2371 141.226L32.498 142.038C33.0346 141.205 33.5775 140.377 34.1264 139.553L32.8781 138.721C33.4315 137.89 33.9911 137.064 34.5567 136.242L35.7924 137.093C36.3543 136.276 36.9223 135.464 37.4963 134.656L36.2736 133.787C36.852 132.974 37.4364 132.164 38.0268 131.36L39.2361 132.247C39.8221 131.449 40.4141 130.655 41.0119 129.865L39.816 128.96C40.4189 128.163 41.0276 127.372 41.6423 126.585L42.8243 127.509C43.4343 126.728 44.0501 125.952 44.6716 125.181L43.5036 124.239C44.1299 123.462 44.762 122.69 45.3997 121.922L46.5534 122.881C47.1867 122.119 47.8257 121.362 48.4703 120.609L47.3312 119.633C47.9807 118.875 48.6359 118.122 49.2967 117.374L50.421 118.367C51.0768 117.624 51.7381 116.887 52.405 116.154L51.2958 115.144C51.9677 114.406 52.6452 113.673 53.3282 112.945L54.4221 113.972C55.1 113.249 55.7832 112.532 56.4719 111.819L55.3935 110.777C56.0874 110.059 56.7866 109.347 57.4912 108.639L58.5539 109.698C59.253 108.996 59.9575 108.3 60.6672 107.609L59.6206 106.534C60.3355 105.838 61.0558 105.147 61.7813 104.461L62.8116 105.551C63.5316 104.87 64.2568 104.195 64.9871 103.525L63.9732 102.42C64.7088 101.745 65.4495 101.076 66.1952 100.412L67.1924 101.533C67.9323 100.875 68.6772 100.222 69.427 99.5741L68.4467 98.4388C69.2023 97.7864 69.9628 97.1397 70.7283 96.4985L71.6915 97.6485C72.4509 97.0123 73.2153 96.3818 73.9846 95.7569L73.0388 94.5927C73.8131 93.9636 74.5923 93.3402 75.3764 92.7226L76.3046 93.9009C77.0827 93.2879 77.8656 92.6806 78.6532 92.079L77.7428 90.8869C78.5362 90.2809 79.3344 89.6807 80.1373 89.0864L81.0297 90.292C81.8254 89.7031 82.6256 89.1199 83.4304 88.5426L82.5561 87.3237C83.367 86.7421 84.1825 86.1663 85.0025 85.5966L85.8584 86.8284C86.6723 86.2629 87.4906 85.7034 88.3134 85.1498L87.4761 83.9053C88.3035 83.3486 89.1354 82.798 89.9716 82.2534L90.7902 83.5104C91.6199 82.97 92.4541 82.4357 93.2925 81.9075L92.4929 80.6383C93.3377 80.1061 94.1868 79.58 95.0401 79.0601L95.8205 80.3411C96.6659 79.8261 97.5155 79.3173 98.3692 78.8146L97.6081 77.522C98.4676 77.0159 99.3313 76.5161 100.199 76.0225L100.941 77.3264C101.802 76.8366 102.667 76.353 103.537 75.8757L102.815 74.5609C103.689 74.0807 104.568 73.6069 105.45 73.1396L106.152 74.4652C107.027 74.002 107.905 73.5453 108.788 73.0949L108.106 71.7589C108.995 71.3051 109.887 70.8578 110.784 70.4169L111.446 71.763C112.335 71.326 113.228 70.8954 114.124 70.4713L113.483 69.1154C114.384 68.6892 115.288 68.2696 116.197 67.8565L116.818 69.222C117.719 68.812 118.624 68.4086 119.533 68.0118L118.932 66.6372C119.848 66.2375 120.767 65.8444 121.689 65.458L122.269 66.8416C123.181 66.4597 124.096 66.0844 125.014 65.7158L124.456 64.3237C125.382 63.9523 126.311 63.5876 127.243 63.2297L127.781 64.6301C128.706 64.2748 129.635 63.9263 130.567 63.5846L130.051 62.1763C130.986 61.8334 131.925 61.4973 132.867 61.168L133.362 62.5839C134.296 62.2575 135.233 61.9377 136.173 61.6249L135.7 60.2016C136.647 59.8863 137.598 59.5779 138.552 59.2765L139.004 60.7068C139.947 60.4086 140.894 60.1172 141.843 59.8328L141.413 58.3959C142.367 58.11 143.324 57.8311 144.285 57.5591L144.693 59.0024C145.647 58.7325 146.603 58.4695 147.561 58.2135L147.174 56.7642C148.139 56.5068 149.106 56.2563 150.076 56.013L150.441 57.4679C151.399 57.2275 152.36 56.9941 153.324 56.7676L152.981 55.3074C153.952 55.0793 154.926 54.8582 155.902 54.6442L156.223 56.1094C157.192 55.8971 158.164 55.6918 159.138 55.4936L158.839 54.0237C159.814 53.8255 160.791 53.6344 161.77 53.4504L162.047 54.9247C163.019 54.7421 163.994 54.5666 164.971 54.3982L164.716 52.92C165.701 52.7503 166.688 52.5878 167.677 52.4326L167.91 53.9144C168.886 53.7612 169.865 53.6151 170.846 53.4761L170.636 51.9909C171.621 51.8513 172.609 51.7189 173.6 51.5937L173.788 53.0819C174.771 52.9576 175.756 52.8405 176.743 52.7306L176.577 51.2398C177.569 51.1294 178.563 51.0263 179.56 50.9304L179.703 52.4235C180.685 52.329 181.67 52.2416 182.656 52.1615L182.535 50.6664C183.528 50.5856 184.524 50.5121 185.522 50.4458L185.621 51.9425C186.612 51.8768 187.604 51.8183 188.599 51.7671L188.522 50.2691C189.514 50.218 190.508 50.1741 191.504 50.1375L191.559 51.6365C192.546 51.6002 193.536 51.5711 194.527 51.5493L194.494 50.0496C195.493 50.0276 196.493 50.0129 197.495 50.0055L197.506 51.5055C198.004 51.5018 198.502 51.5 199 51.5C199.498 51.5 199.996 51.5018 200.494 51.5055L200.505 50.0055C201.507 50.0129 202.508 50.0276 203.506 50.0496L203.473 51.5493C204.464 51.5711 205.454 51.6002 206.442 51.6365L206.497 50.1376C207.493 50.1742 208.486 50.218 209.478 50.2691L209.401 51.7671C210.396 51.8183 211.388 51.8768 212.379 51.9426L212.478 50.4458C213.476 50.5121 214.472 50.5856 215.466 50.6664L215.344 52.1615C216.33 52.2416 217.315 52.329 218.297 52.4235L218.441 50.9304C219.437 51.0263 220.431 51.1294 221.423 51.2398L221.257 52.7306C222.244 52.8405 223.229 52.9576 224.212 53.0819L224.4 51.5937C225.391 51.7189 226.379 51.8514 227.364 51.991L227.154 53.4761C228.135 53.6151 229.114 53.7612 230.09 53.9144L230.323 52.4326C231.312 52.5878 232.299 52.7503 233.284 52.92L233.029 54.3982C234.006 54.5666 234.981 54.7421 235.953 54.9247L236.23 53.4504C237.209 53.6344 238.186 53.8256 239.161 54.0237L238.862 55.4937C239.836 55.6918 240.808 55.8971 241.777 56.1095L242.098 54.6442C243.074 54.8582 244.048 55.0793 245.019 55.3074L244.676 56.7676C245.64 56.9941 246.601 57.2275 247.559 57.4679L247.924 56.013C248.894 56.2563 249.861 56.5068 250.826 56.7642L250.439 58.2135C251.397 58.4695 252.353 58.7324 253.306 59.0023L253.715 57.5591C254.675 57.8311 255.633 58.11 256.587 58.3959L256.157 59.8328C257.106 60.1172 258.053 60.4086 258.996 60.7067L259.448 59.2765C260.402 59.5779 261.353 59.8863 262.3 60.2016L261.827 61.6248C262.767 61.9377 263.704 62.2574 264.638 62.5839L265.133 61.168C266.075 61.4972 267.014 61.8334 267.949 62.1763L267.433 63.5846C268.365 63.9263 269.294 64.2748 270.219 64.63L270.757 63.2297C271.689 63.5876 272.618 63.9523 273.544 64.3237L272.985 65.7158C273.904 66.0844 274.819 66.4597 275.731 66.8415L276.311 65.458C277.233 65.8444 278.152 66.2374 279.067 66.6371L278.467 68.0118C279.376 68.4086 280.281 68.812 281.182 69.2219L281.803 67.8565C282.712 68.2695 283.616 68.6892 284.517 69.1153L283.876 70.4713C284.772 70.8954 285.665 71.326 286.554 71.763L287.216 70.4169C288.113 70.8577 289.005 71.3051 289.894 71.7589L289.212 73.0949C290.095 73.5452 290.973 74.002 291.848 74.4651L292.55 73.1395C293.432 73.6069 294.311 74.0807 295.185 74.5608L294.463 75.8757C295.333 76.353 296.198 76.8365 297.059 77.3264L297.801 76.0225C298.669 76.516 299.532 77.0159 300.392 77.522L299.631 78.8146C300.484 79.3172 301.334 79.8261 302.179 80.3411L302.96 79.0601C303.813 79.58 304.662 80.1061 305.507 80.6383L304.707 81.9074C305.546 82.4356 306.38 82.97 307.21 83.5103L308.028 82.2533C308.865 82.7979 309.696 83.3486 310.524 83.9053L309.687 85.1498C310.509 85.7034 311.328 86.2629 312.142 86.8284L312.997 85.5966C313.817 86.1663 314.633 86.7421 315.444 87.3237L314.57 88.5426C315.374 89.1199 316.175 89.703 316.97 90.292L317.863 89.0864C318.666 89.6807 319.464 90.2809 320.257 90.8869L319.347 92.079C320.134 92.6805 320.917 93.2878 321.695 93.9008L322.624 92.7225C323.408 93.3402 324.187 93.9636 324.961 94.5926L324.015 95.7569C324.785 96.3818 325.549 97.0123 326.309 97.6484L327.272 96.4985C328.037 97.1397 328.798 97.7864 329.553 98.4388L328.573 99.5741C329.323 100.222 330.068 100.875 330.808 101.533L331.805 100.412C332.551 101.076 333.291 101.745 334.027 102.42L333.013 103.525C333.743 104.195 334.468 104.87 335.188 105.551L336.219 104.461C336.944 105.147 337.664 105.838 338.379 106.534L337.333 107.609C338.042 108.3 338.747 108.996 339.446 109.698L340.509 108.639C341.213 109.347 341.913 110.059 342.606 110.777L341.528 111.819C342.217 112.532 342.9 113.249 343.578 113.972L344.672 112.945C345.355 113.673 346.032 114.406 346.704 115.144L345.595 116.154C346.262 116.887 346.923 117.624 347.579 118.367L348.703 117.374C349.364 118.122 350.019 118.875 350.669 119.633L349.53 120.609C350.174 121.362 350.813 122.119 351.447 122.881L352.6 121.922C353.238 122.69 353.87 123.462 354.496 124.239L353.328 125.181C353.95 125.952 354.566 126.728 355.176 127.509L356.358 126.585C356.972 127.372 357.581 128.163 358.184 128.96L356.988 129.865C357.586 130.655 358.178 131.449 358.764 132.247L359.973 131.36C360.564 132.164 361.148 132.974 361.726 133.787L360.504 134.656C361.078 135.464 361.646 136.276 362.208 137.093L363.443 136.242C364.009 137.064 364.569 137.89 365.122 138.721L363.874 139.553C364.422 140.377 364.965 141.205 365.502 142.038L366.763 141.225C367.304 142.065 367.838 142.908 368.366 143.756L367.093 144.549C367.617 145.39 368.135 146.234 368.646 147.083L369.931 146.309C370.446 147.164 370.954 148.022 371.456 148.885L370.159 149.639C370.658 150.495 371.149 151.356 371.635 152.22L372.943 151.485C373.431 152.356 373.914 153.23 374.389 154.108L373.071 154.823C373.542 155.693 374.007 156.567 374.465 157.445L375.795 156.75C376.257 157.635 376.712 158.524 377.161 159.416L375.821 160.09C376.266 160.975 376.705 161.864 377.137 162.757L378.487 162.104C378.921 163.001 379.349 163.902 379.769 164.806L378.409 165.439C378.827 166.337 379.238 167.238 379.642 168.143L381.012 167.531C381.419 168.443 381.82 169.358 382.214 170.278L380.835 170.868C381.224 171.777 381.607 172.69 381.983 173.606L383.371 173.036C383.749 173.959 384.121 174.885 384.486 175.814L383.09 176.363C383.452 177.285 383.807 178.211 384.156 179.14L385.56 178.613C385.91 179.546 386.253 180.483 386.59 181.423L385.177 181.928C385.51 182.86 385.836 183.794 386.156 184.732L387.576 184.249C387.897 185.194 388.212 186.142 388.52 187.093L387.092 187.555C387.397 188.497 387.695 189.442 387.985 190.39L389.419 189.95C389.711 190.903 389.996 191.858 390.274 192.816L388.833 193.234C389.108 194.185 389.377 195.139 389.638 196.096L391.085 195.701C391.348 196.664 391.604 197.63 391.853 198.6L390.4 198.972C390.646 199.929 390.884 200.888 391.115 201.851L392.574 201.5C392.807 202.47 393.033 203.442 393.251 204.417L391.788 204.745C392.005 205.713 392.214 206.683 392.417 207.656L393.885 207.35C394.088 208.325 394.283 209.301 394.472 210.281L392.999 210.564C393.185 211.535 393.365 212.508 393.537 213.485L395.014 213.224C395.187 214.208 395.353 215.194 395.512 216.182L394.031 216.42C394.188 217.396 394.337 218.375 394.479 219.356L395.964 219.141C396.107 220.126 396.242 221.113 396.37 222.103L394.882 222.296C395.009 223.278 395.129 224.262 395.241 225.249L396.732 225.079C396.845 226.071 396.95 227.065 397.048 228.062L395.556 228.208C395.652 229.19 395.742 230.174 395.824 231.16L397.318 231.036C397.401 232.029 397.476 233.025 397.544 234.023L396.047 234.124C396.115 235.114 396.174 236.106 396.227 237.1L397.725 237.022C397.777 238.014 397.822 239.008 397.859 240.004L396.36 240.06C396.397 241.048 396.427 242.037 396.45 243.028L397.949 242.994Z" stroke="#C4C0C0" stroke-width="3" stroke-dasharray="3 3"/>
<ellipse cx="167.5" cy="118.5" rx="119.5" ry="118.5" fill="#EA4335"/>
<ellipse cx="239" cy="444.5" rx="48" ry="47.5" fill="#34A852"/>
</svg>
