<svg width="198" height="275" viewBox="0 0 198 275" fill="none" xmlns="http://www.w3.org/2000/svg">
<path d="M233.916 111.682C233.953 112.664 233.978 113.648 233.991 114.635L232.491 114.654C232.497 115.141 232.5 115.629 232.5 116.118C232.5 116.607 232.497 117.095 232.491 117.582L233.991 117.601C233.978 118.588 233.953 119.573 233.916 120.554L232.417 120.497C232.38 121.47 232.331 122.441 232.27 123.408L233.767 123.502C233.705 124.488 233.63 125.469 233.543 126.448L232.049 126.315C231.963 127.285 231.865 128.251 231.754 129.214L233.245 129.385C233.132 130.365 233.008 131.342 232.871 132.315L231.385 132.106C231.25 133.07 231.102 134.03 230.943 134.986L232.422 135.233C232.26 136.206 232.085 137.175 231.899 138.14L230.426 137.855C230.241 138.811 230.044 139.762 229.836 140.709L231.301 141.032C231.089 141.995 230.864 142.953 230.628 143.907L229.172 143.547C228.938 144.492 228.693 145.432 228.436 146.367L229.882 146.765C229.621 147.715 229.347 148.661 229.062 149.601L227.627 149.167C227.345 150.098 227.051 151.024 226.746 151.946L228.17 152.417C227.86 153.353 227.538 154.283 227.205 155.207L225.794 154.699C225.464 155.615 225.123 156.525 224.771 157.429L226.168 157.974C225.811 158.892 225.442 159.804 225.062 160.71L223.679 160.13C223.302 161.028 222.915 161.919 222.516 162.805L223.884 163.42C223.48 164.318 223.065 165.21 222.638 166.096L221.287 165.446C220.865 166.322 220.432 167.193 219.989 168.057L221.323 168.742C220.874 169.618 220.413 170.488 219.942 171.351L218.626 170.632C218.16 171.486 217.683 172.333 217.196 173.174L218.493 173.926C218 174.778 217.496 175.623 216.981 176.461L215.703 175.676C215.194 176.505 214.675 177.327 214.145 178.141L215.403 178.959C214.867 179.784 214.32 180.603 213.763 181.414L212.527 180.565C211.976 181.367 211.416 182.161 210.846 182.948L212.061 183.828C211.483 184.625 210.896 185.415 210.298 186.197L209.106 185.287C208.516 186.059 207.916 186.824 207.307 187.581L208.476 188.521C207.859 189.289 207.232 190.048 206.596 190.799L205.451 189.829C204.823 190.571 204.185 191.304 203.539 192.03L204.658 193.028C204.003 193.763 203.339 194.489 202.666 195.207L201.571 194.181C200.907 194.89 200.233 195.591 199.55 196.283L200.618 197.336C199.927 198.037 199.227 198.729 198.518 199.413L197.477 198.333C196.778 199.007 196.07 199.673 195.353 200.33L196.367 201.436C195.641 202.101 194.907 202.757 194.165 203.404L193.179 202.273C192.447 202.911 191.706 203.541 190.957 204.161L191.914 205.316C191.156 205.944 190.39 206.562 189.616 207.171L188.689 205.992C187.925 206.592 187.153 207.184 186.374 207.766L187.272 208.968C186.483 209.556 185.687 210.135 184.884 210.704L184.017 209.48C183.224 210.042 182.423 210.594 181.616 211.136L182.451 212.381C181.635 212.929 180.811 213.467 179.98 213.995L179.176 212.729C178.355 213.25 177.528 213.761 176.694 214.261L177.466 215.547C176.623 216.054 175.773 216.549 174.916 217.035L174.177 215.73C173.331 216.208 172.479 216.677 171.621 217.135L172.327 218.458C171.46 218.921 170.586 219.374 169.706 219.815L169.033 218.474C168.165 218.91 167.29 219.335 166.41 219.749L167.048 221.106C166.159 221.525 165.263 221.932 164.361 222.329L163.757 220.956C162.868 221.347 161.974 221.727 161.073 222.096L161.642 223.484C160.733 223.857 159.817 224.219 158.897 224.57L158.363 223.168C157.456 223.513 156.543 223.848 155.625 224.171L156.123 225.586C155.196 225.912 154.263 226.227 153.326 226.531L152.864 225.104C151.94 225.403 151.012 225.69 150.079 225.967L150.505 227.405C149.562 227.684 148.615 227.952 147.663 228.208L147.273 226.759C146.336 227.011 145.395 227.251 144.449 227.48L144.801 228.938C143.846 229.169 142.886 229.389 141.922 229.596L141.606 228.13C140.658 228.334 139.706 228.527 138.749 228.707L139.028 230.181C138.062 230.364 137.093 230.535 136.119 230.693L135.877 229.213C134.921 229.369 133.96 229.514 132.995 229.646L133.199 231.132C132.226 231.266 131.249 231.388 130.268 231.498L130.101 230.007C129.138 230.115 128.171 230.211 127.201 230.295L127.33 231.79C126.352 231.875 125.37 231.948 124.384 232.009L124.292 230.512C123.325 230.571 122.354 230.619 121.38 230.655L121.436 232.154C120.455 232.191 119.47 232.215 118.483 232.227L118.465 230.727C117.977 230.733 117.489 230.736 117 230.736C116.511 230.736 116.023 230.733 115.535 230.727L115.517 232.227C114.53 232.215 113.545 232.191 112.564 232.154L112.62 230.655C111.646 230.619 110.675 230.571 109.708 230.512L109.616 232.009C108.63 231.948 107.648 231.875 106.67 231.79L106.799 230.295C105.829 230.211 104.862 230.115 103.899 230.007L103.732 231.498C102.751 231.388 101.774 231.266 100.801 231.132L101.005 229.646C100.04 229.514 99.0794 229.369 98.1226 229.213L97.8811 230.693C96.9073 230.535 95.9375 230.364 94.972 230.181L95.2506 228.707C94.2941 228.527 93.3417 228.334 92.3937 228.13L92.0779 229.596C91.1137 229.389 90.1538 229.169 89.1986 228.938L89.5513 227.48C88.6051 227.251 87.6636 227.011 86.7268 226.759L86.3374 228.208C85.3852 227.952 84.4378 227.684 83.4954 227.405L83.9213 225.967C82.988 225.69 82.0597 225.403 81.1365 225.104L80.6744 226.531C79.7366 226.227 78.8041 225.912 77.877 225.586L78.3751 224.171C77.457 223.848 76.5443 223.513 75.6371 223.168L75.1034 224.57C74.1825 224.219 73.2673 223.857 72.3578 223.484L72.9268 222.096C72.0263 221.727 71.1316 221.347 70.2428 220.956L69.6388 222.329C68.7371 221.932 67.8414 221.525 66.9518 221.106L67.5903 219.749C66.7097 219.335 65.8352 218.91 64.967 218.474L64.2945 219.815C63.4142 219.374 62.5403 218.921 61.6729 218.458L62.3791 217.135C61.5206 216.677 60.6686 216.208 59.8233 215.73L59.0839 217.035C58.2272 216.549 57.3772 216.054 56.5342 215.547L57.3062 214.261C56.472 213.761 55.6447 213.25 54.8244 212.729L54.0202 213.995C53.1891 213.467 52.3652 212.929 51.5486 212.381L52.3844 211.136C51.5766 210.594 50.7761 210.042 49.983 209.48L49.1161 210.704C48.3126 210.135 47.5166 209.556 46.7284 208.968L47.6258 207.766C46.8465 207.184 46.0749 206.592 45.3111 205.992L44.3837 207.171C43.6098 206.562 42.8439 205.944 42.0861 205.316L43.0428 204.161C42.2939 203.541 41.5531 202.911 40.8205 202.273L39.835 203.404C39.0927 202.757 38.3588 202.101 37.6333 201.436L38.647 200.33C37.9304 199.673 37.2222 199.007 36.5226 198.333L35.4815 199.413C34.7728 198.729 34.0727 198.037 33.3815 197.336L34.4495 196.283C33.767 195.591 33.0933 194.89 32.4285 194.181L31.3343 195.207C30.661 194.489 29.9967 193.763 29.3416 193.028L30.4613 192.03C29.8146 191.304 29.1771 190.571 28.5488 189.829L27.4043 190.799C26.7681 190.048 26.1413 189.289 25.5241 188.522L26.6928 187.581C26.0836 186.824 25.4839 186.059 24.8938 185.287L23.7018 186.197C23.1045 185.415 22.5169 184.625 21.9393 183.828L23.154 182.948C22.584 182.161 22.0238 181.367 21.4735 180.565L20.2368 181.414C19.6801 180.603 19.1334 179.784 18.597 178.959L19.8548 178.141C19.3254 177.327 18.8062 176.505 18.2973 175.676L17.019 176.461C16.5044 175.623 16.0002 174.778 15.5065 173.926L16.8043 173.174C16.3172 172.333 15.8405 171.486 15.3744 170.632L14.0577 171.351C13.5867 170.488 13.1263 169.618 12.6767 168.742L14.0113 168.057C13.5678 167.193 13.1351 166.322 12.7132 165.446L11.3615 166.096C10.9353 165.21 10.52 164.318 10.1159 163.42L11.4838 162.805C11.0853 161.919 10.6978 161.028 10.3215 160.13L8.9382 160.71C8.55802 159.804 8.18908 158.892 7.83156 157.974L9.22927 157.429C8.87691 156.525 8.53578 155.615 8.20606 154.699L6.79479 155.207C6.46178 154.283 6.14024 153.353 5.83036 152.417L7.25425 151.946C6.94904 151.024 6.65528 150.098 6.37314 149.167L4.93756 149.601C4.65265 148.661 4.37944 147.715 4.11808 146.765L5.56439 146.367C5.30716 145.432 5.06157 144.492 4.82779 143.547L3.3717 143.907C3.13567 142.953 2.91151 141.995 2.6994 141.032L4.16428 140.709C3.95566 139.762 3.75885 138.811 3.57399 137.855L2.10129 138.14C1.9147 137.175 1.74013 136.206 1.57776 135.233L3.0573 134.986C2.89772 134.03 2.75007 133.07 2.6145 132.106L1.12911 132.315C0.992313 131.342 0.86766 130.365 0.755307 129.385L2.24555 129.214C2.13521 128.251 2.03688 127.285 1.95073 126.315L0.456611 126.448C0.369719 125.469 0.29505 124.488 0.232759 123.502L1.72977 123.408C1.66862 122.441 1.61955 121.47 1.58272 120.497L0.0837879 120.554C0.0466597 119.573 0.0217967 118.588 0.00934671 117.601L1.50923 117.582C1.50308 117.095 1.5 116.607 1.5 116.118C1.5 115.629 1.50308 115.141 1.50923 114.654L0.00934643 114.635C0.0217962 113.648 0.046659 112.664 0.0837871 111.683L1.58271 111.739C1.61955 110.766 1.66862 109.795 1.72977 108.828L0.232758 108.734C0.295049 107.749 0.369718 106.767 0.45661 105.789L1.95073 105.921C2.03688 104.951 2.13521 103.985 2.24555 103.022L0.755305 102.851C0.867658 101.871 0.992312 100.894 1.12911 99.9213L2.6145 100.13C2.75006 99.1662 2.89772 98.2059 3.05729 97.2497L1.57776 97.0028C1.74013 96.0299 1.91469 95.061 2.10129 94.0963L3.57399 94.3812C3.75884 93.4255 3.95566 92.4741 4.16427 91.527L2.69939 91.2043C2.91151 90.2414 3.13567 89.2829 3.3717 88.329L4.82778 88.6893C5.06157 87.7445 5.30716 86.8044 5.56439 85.869L4.11808 85.4712C4.37943 84.5208 4.65265 83.5753 4.93756 82.6348L6.37313 83.0697C6.65527 82.1383 6.94903 81.2119 7.25425 80.2906L5.83036 79.8189C6.14024 78.8836 6.46177 77.9535 6.79479 77.0288L8.20606 77.537C8.53578 76.6215 8.8769 75.7113 9.22926 74.8067L7.83155 74.2623C8.18908 73.3444 8.55801 72.4322 8.93819 71.5258L10.3215 72.1059C10.6978 71.2086 11.0853 70.3171 11.4838 69.4315L10.1159 68.816C10.52 67.9179 10.9353 67.0259 11.3615 66.1401L12.7132 66.7905C13.1351 65.9138 13.5678 65.0432 14.0113 64.179L12.6767 63.4941C13.1263 62.6181 13.5866 61.7486 14.0577 60.8856L15.3743 61.6043C15.8404 60.7504 16.3172 59.903 16.8043 59.0624L15.5065 58.3103C16.0002 57.4584 16.5044 56.6133 17.019 55.7753L18.2973 56.5602C18.8062 55.7314 19.3254 54.9095 19.8548 54.0947L18.597 53.2775C19.1334 52.4518 19.6801 51.6334 20.2368 50.8222L21.4735 51.6711C22.0237 50.8695 22.584 50.0752 23.154 49.2883L21.9393 48.4083C22.5169 47.6109 23.1045 46.8211 23.7018 46.0391L24.8938 46.9495C25.4839 46.177 26.0836 45.4121 26.6927 44.655L25.5241 43.7147C26.1413 42.9476 26.7681 42.1885 27.4043 41.4375L28.5488 42.407C29.1771 41.6654 29.8146 40.9318 30.4613 40.2064L29.3416 39.2082C29.9967 38.4734 30.661 37.7468 31.3343 37.0287L32.4285 38.0547C33.0933 37.3458 33.767 36.6453 34.4495 35.9533L33.3815 34.9C34.0727 34.1992 34.7728 33.507 35.4815 32.8236L36.5226 33.9035C37.2222 33.229 37.9304 32.5632 38.647 31.9063L37.6333 30.8006C38.3588 30.1355 39.0927 29.4795 39.835 28.8326L40.8205 29.9634C41.5531 29.325 42.2939 28.6956 43.0428 28.0755L42.086 26.9202C42.8439 26.2926 43.6098 25.6743 44.3837 25.0656L45.3111 26.2446C46.0749 25.6438 46.8465 25.0523 47.6258 24.4705L46.7284 23.2686C47.5166 22.68 48.3125 22.1012 49.1161 21.5321L49.983 22.7562C50.7761 22.1946 51.5766 21.6426 52.3844 21.1006L51.5486 19.855C52.3652 19.3071 53.1891 18.7691 54.0202 18.2412L54.8244 19.5074C55.6447 18.9865 56.472 18.4755 57.3062 17.9748L56.5342 16.6887C57.3772 16.1826 58.2272 15.6869 59.0839 15.2015L59.8233 16.5067C60.6686 16.0278 61.5206 15.5592 62.3791 15.1011L61.6729 13.7777C62.5402 13.3149 63.4142 12.8626 64.2945 12.421L64.967 13.7618C65.8352 13.3263 66.7097 12.9014 67.5903 12.4871L66.9518 11.1298C67.8414 10.7114 68.7371 10.3038 69.6388 9.90714L70.2428 11.2802C71.1316 10.8892 72.0263 10.509 72.9268 10.1399L72.3577 8.75198C73.2673 8.37908 74.1825 8.01724 75.1034 7.66662L75.6371 9.06845C76.5443 8.72303 77.457 8.38865 78.3751 8.06546L77.877 6.65058C78.8041 6.32419 79.7366 6.00907 80.6743 5.70539L81.1365 7.13242C82.0597 6.83345 82.988 6.5457 83.9213 6.26935L83.4954 4.83108C84.4378 4.55203 85.3852 4.28444 86.3374 4.02849L86.7268 5.47707C87.6636 5.22525 88.6051 4.98484 89.5513 4.75599L89.1986 3.29803C90.1538 3.06698 91.1137 2.84756 92.0779 2.63995L92.3936 4.10634C93.3417 3.90222 94.2941 3.70965 95.2506 3.52878L94.9719 2.0549C95.9375 1.87233 96.9073 1.70154 97.8811 1.54269L98.1226 3.02312C99.0794 2.86703 100.04 2.72262 101.005 2.59002L100.801 1.10399C101.774 0.970197 102.751 0.848285 103.732 0.738408L103.899 2.22908C104.862 2.12118 105.829 2.02503 106.799 1.94078L106.67 0.446407C107.648 0.361444 108.63 0.288437 109.616 0.227533L109.708 1.72468C110.675 1.66489 111.646 1.61691 112.62 1.58089L112.564 0.0819128C113.545 0.0456146 114.53 0.0213083 115.517 0.00913725L115.535 1.50902C116.023 1.50301 116.511 1.5 117 1.5C117.489 1.5 117.977 1.50301 118.465 1.50902L118.483 0.00913711C119.47 0.0213081 120.455 0.0456143 121.436 0.0819124L121.38 1.58089C122.354 1.61691 123.325 1.66488 124.292 1.72468L124.384 0.227533C125.37 0.288436 126.352 0.361443 127.33 0.446405L127.201 1.94078C128.171 2.02503 129.138 2.12118 130.101 2.22908L130.268 0.738407C131.249 0.848284 132.226 0.970197 133.199 1.10399L132.995 2.59002C133.96 2.72262 134.921 2.86703 135.877 3.02312L136.119 1.54268C137.093 1.70154 138.062 1.87233 139.028 2.05489L138.749 3.52878C139.706 3.70965 140.658 3.90222 141.606 4.10634L141.922 2.63995C142.886 2.84757 143.846 3.06698 144.801 3.29803L144.449 4.75599C145.395 4.98484 146.336 5.22525 147.273 5.47707L147.663 4.02849C148.615 4.28444 149.562 4.55203 150.505 4.83108L150.079 6.26935C151.012 6.5457 151.94 6.83345 152.864 7.13242L153.326 5.70539C154.263 6.00907 155.196 6.32419 156.123 6.65058L155.625 8.06546C156.543 8.38865 157.456 8.72303 158.363 9.06845L158.897 7.66662C159.817 8.01724 160.733 8.37908 161.642 8.75198L161.073 10.1399C161.974 10.509 162.868 10.8892 163.757 11.2802L164.361 9.90714C165.263 10.3038 166.159 10.7114 167.048 11.1298L166.41 12.4871C167.29 12.9014 168.165 13.3263 169.033 13.7618L169.706 12.421C170.586 12.8626 171.46 13.3149 172.327 13.7777L171.621 15.1011C172.479 15.5592 173.331 16.0278 174.177 16.5067L174.916 15.2015C175.773 15.6869 176.623 16.1826 177.466 16.6887L176.694 17.9748C177.528 18.4755 178.355 18.9865 179.176 19.5074L179.98 18.2412C180.811 18.7691 181.635 19.3071 182.451 19.855L181.616 21.1006C182.423 21.6426 183.224 22.1946 184.017 22.7562L184.884 21.5321C185.687 22.1012 186.483 22.68 187.272 23.2686L186.374 24.4705C187.153 25.0523 187.925 25.6438 188.689 26.2446L189.616 25.0656C190.39 25.6743 191.156 26.2926 191.914 26.9202L190.957 28.0755C191.706 28.6956 192.447 29.325 193.179 29.9634L194.165 28.8326C194.907 29.4795 195.641 30.1355 196.367 30.8006L195.353 31.9063C196.07 32.5632 196.778 33.229 197.477 33.9035L198.518 32.8236C199.227 33.507 199.927 34.1992 200.618 34.9L199.55 35.9533C200.233 36.6453 200.907 37.3458 201.571 38.0548L202.666 37.0287C203.339 37.7468 204.003 38.4734 204.658 39.2082L203.539 40.2064C204.185 40.9318 204.823 41.6654 205.451 42.407L206.596 41.4375C207.232 42.1885 207.859 42.9476 208.476 43.7147L207.307 44.655C207.916 45.4121 208.516 46.177 209.106 46.9495L210.298 46.0391C210.896 46.8211 211.483 47.6109 212.061 48.4083L210.846 49.2883C211.416 50.0752 211.976 50.8695 212.527 51.6711L213.763 50.8223C214.32 51.6334 214.867 52.4518 215.403 53.2775L214.145 54.0947C214.675 54.9095 215.194 55.7314 215.703 56.5602L216.981 55.7753C217.496 56.6133 218 57.4584 218.493 58.3103L217.196 59.0624C217.683 59.903 218.16 60.7504 218.626 61.6042L219.942 60.8855C220.413 61.7485 220.874 62.6181 221.323 63.4941L219.989 64.179C220.432 65.0432 220.865 65.9138 221.287 66.7905L222.638 66.1401C223.065 67.0259 223.48 67.9179 223.884 68.816L222.516 69.4315C222.915 70.3171 223.302 71.2086 223.679 72.1059L225.062 71.5257C225.442 72.4322 225.811 73.3444 226.168 74.2623L224.771 74.8067C225.123 75.7113 225.464 76.6215 225.794 77.537L227.205 77.0288C227.538 77.9535 227.86 78.8835 228.17 79.8189L226.746 80.2906C227.051 81.2119 227.345 82.1383 227.627 83.0696L229.062 82.6348C229.347 83.5753 229.621 84.5208 229.882 85.4712L228.436 85.869C228.693 86.8044 228.938 87.7445 229.172 88.6893L230.628 88.329C230.864 89.2829 231.088 90.2414 231.301 91.2043L229.836 91.527C230.044 92.4741 230.241 93.4255 230.426 94.3812L231.899 94.0963C232.085 95.061 232.26 96.0298 232.422 97.0028L230.943 97.2497C231.102 98.2059 231.25 99.1661 231.385 100.13L232.871 99.9213C233.008 100.894 233.132 101.871 233.245 102.851L231.754 103.022C231.865 103.985 231.963 104.951 232.049 105.921L233.543 105.789C233.63 106.767 233.705 107.749 233.767 108.734L232.27 108.828C232.331 109.795 232.38 110.766 232.417 111.739L233.916 111.682Z" stroke="#C4C0C0" stroke-width="3" stroke-dasharray="3 3"/>
<ellipse cx="89.6609" cy="204.897" rx="70.2588" ry="69.6709" fill="#34A852"/>
<ellipse cx="175.206" cy="27.9271" rx="28.2211" ry="27.9271" fill="#FABB04"/>
</svg>
